<svg width="18.000000" height="20.000000" viewBox="0 0 18 20" fill="none" xmlns="http://www.w3.org/2000/svg" xmlns:xlink="http://www.w3.org/1999/xlink">
	<desc>
			Created with Pixso.
	</desc>
	<defs/>
	<path id="calendar_today" d="M2 20C1.4502 20 0.979492 19.8042 0.587891 19.4125C0.196289 19.0208 0 18.55 0 18L0 4C0 3.45001 0.196289 2.97916 0.587891 2.58749C0.979492 2.19583 1.4502 2 2 2L3 2L3 0L5 0L5 2L13 2L13 0L15 0L15 2L16 2C16.5498 2 17.0205 2.19583 17.4121 2.58749C17.8037 2.97916 18 3.45001 18 4L18 18C18 18.55 17.8037 19.0208 17.4121 19.4125C17.0205 19.8042 16.5498 20 16 20L2 20ZM2 18L16 18L16 8L2 8L2 18ZM2 6L16 6L16 4L2 4L2 6Z" fill="#906A30" fill-opacity="1.000000" fill-rule="nonzero"/>
</svg>
