<svg width="182" height="182" viewBox="0 0 182 182" fill="none" xmlns="http://www.w3.org/2000/svg">
<circle cx="91" cy="91" r="91" fill="#E74C3C"/>
<path d="M182 91C182 112.053 174.7 132.455 161.344 148.73C147.988 165.004 129.402 176.144 108.753 180.251C88.1044 184.359 66.6703 181.179 48.1029 171.255C29.5355 161.33 14.9837 145.275 6.92697 125.824C-1.1298 106.373 -2.19303 84.7309 3.91843 64.5841C10.0299 44.4373 22.9379 27.0329 40.4431 15.3363C57.9483 3.63967 78.9676 -1.6254 99.9195 0.438189C120.871 2.50177 140.46 11.7663 155.347 26.6533L91 91H182Z" fill="#F1C40F"/>
<path d="M182 91C182 107.333 177.604 123.365 169.274 137.414C160.943 151.463 148.985 163.011 134.654 170.846C120.323 178.681 104.147 182.515 87.8239 181.945C71.5007 181.374 55.6319 176.422 41.8824 167.606C28.1328 158.79 17.0094 146.436 9.67922 131.84C2.34903 117.244 -0.917728 100.945 0.221711 84.6516C1.36115 68.3583 6.86478 52.672 16.1551 39.2386C25.4455 25.8051 38.1801 15.1196 53.0229 8.30333L91 91H182Z" fill="#3498DB"/>
<path d="M182 91C182 107.677 177.417 124.033 168.752 138.282C160.087 152.531 147.673 164.125 132.866 171.797C118.059 179.47 101.429 182.926 84.7907 181.788C68.1528 180.65 52.1475 174.962 38.5229 165.345L91 91H182Z" fill="#1ABC9C"/>
<circle cx="91" cy="91" r="60" fill="white"/>
<path d="M57.5589 98L56.7669 96.032L61.7349 90.536C62.0069 90.248 62.2949 89.912 62.5989 89.528C62.9189 89.144 63.2229 88.752 63.5109 88.352C63.8149 87.936 64.0549 87.536 64.2309 87.152C64.4069 86.752 64.4949 86.392 64.4949 86.072C64.4949 85.704 64.4149 85.384 64.2549 85.112C64.0949 84.824 63.8629 84.6 63.5589 84.44C63.2549 84.28 62.8789 84.2 62.4309 84.2C62.0149 84.2 61.6229 84.312 61.2549 84.536C60.8869 84.744 60.5429 85.056 60.2229 85.472C59.9029 85.888 59.6229 86.392 59.3829 86.984L56.6949 85.472C57.0149 84.544 57.4709 83.736 58.0629 83.048C58.6549 82.36 59.3589 81.824 60.1749 81.44C60.9909 81.056 61.8629 80.864 62.7909 80.864C63.7669 80.88 64.6469 81.088 65.4309 81.488C66.2149 81.888 66.8309 82.448 67.2789 83.168C67.7269 83.888 67.9509 84.72 67.9509 85.664C67.9509 86.016 67.9109 86.376 67.8309 86.744C67.7669 87.112 67.6469 87.496 67.4709 87.896C67.3109 88.296 67.0949 88.72 66.8229 89.168C66.5669 89.6 66.2469 90.064 65.8629 90.56C65.4949 91.04 65.0709 91.544 64.5909 92.072L60.7749 96.224L60.2949 94.76H68.6469V98H57.5589ZM75.6273 98.24C74.3313 98.24 73.1953 97.96 72.2193 97.4C71.2593 96.84 70.3713 95.88 69.5553 94.52L72.1953 92.84C72.5633 93.4 72.9313 93.856 73.2993 94.208C73.6833 94.56 74.0833 94.816 74.4993 94.976C74.9153 95.136 75.3473 95.216 75.7953 95.216C76.2753 95.216 76.7233 95.104 77.1393 94.88C77.5553 94.656 77.8833 94.344 78.1233 93.944C78.3793 93.528 78.5073 93.056 78.5073 92.528C78.5073 91.984 78.4033 91.528 78.1953 91.16C77.9873 90.792 77.6833 90.512 77.2833 90.32C76.8833 90.128 76.4113 90.032 75.8673 90.032C75.6273 90.032 75.3633 90.056 75.0753 90.104C74.7873 90.152 74.4913 90.232 74.1873 90.344C73.8833 90.44 73.5553 90.56 73.2033 90.704L72.3633 88.496L76.8033 83.648L77.7153 84.296L70.6593 84.2V81.104H80.7633L81.4113 82.424L75.8673 88.424L75.0273 87.44C75.1553 87.376 75.3633 87.32 75.6513 87.272C75.9553 87.208 76.2353 87.176 76.4913 87.176C77.2273 87.176 77.9153 87.312 78.5553 87.584C79.1953 87.856 79.7633 88.232 80.2593 88.712C80.7553 89.192 81.1393 89.752 81.4113 90.392C81.6993 91.032 81.8433 91.72 81.8433 92.456C81.8433 93.56 81.5633 94.552 81.0033 95.432C80.4593 96.296 79.7153 96.984 78.7713 97.496C77.8433 97.992 76.7953 98.24 75.6273 98.24ZM91.1383 98V84.416L92.8183 84.512L86.9143 91.736L86.5063 91.136H97.4023V94.184H84.7543L83.2663 91.352L91.7383 81.104H94.6183V98H91.1383ZM104.877 98.168C103.661 98.168 102.557 97.92 101.565 97.424C100.589 96.912 99.7728 96.176 99.1168 95.216L101.061 93.056C101.749 93.824 102.373 94.352 102.933 94.64C103.493 94.912 104.109 95.048 104.781 95.048C105.341 95.048 105.845 94.928 106.293 94.688C106.741 94.448 107.093 94.12 107.349 93.704C107.605 93.288 107.733 92.824 107.733 92.312C107.733 91.784 107.605 91.312 107.349 90.896C107.093 90.48 106.749 90.152 106.317 89.912C105.901 89.656 105.421 89.528 104.877 89.528C104.525 89.528 104.197 89.56 103.893 89.624C103.589 89.672 103.253 89.776 102.885 89.936C102.517 90.08 102.069 90.296 101.541 90.584L99.9088 88.424L100.941 81.104H110.397V84.2H102.765L103.653 83.144L102.861 88.472L101.709 87.92C101.949 87.696 102.277 87.488 102.693 87.296C103.125 87.104 103.589 86.944 104.085 86.816C104.597 86.688 105.093 86.624 105.573 86.624C106.629 86.624 107.565 86.864 108.381 87.344C109.213 87.824 109.869 88.496 110.349 89.36C110.845 90.208 111.093 91.184 111.093 92.288C111.093 93.392 110.821 94.392 110.277 95.288C109.733 96.168 108.989 96.872 108.045 97.4C107.101 97.912 106.045 98.168 104.877 98.168ZM119.347 98C118.499 98 117.699 97.848 116.947 97.544C116.211 97.24 115.563 96.816 115.003 96.272C114.459 95.728 114.027 95.088 113.707 94.352C113.403 93.616 113.251 92.824 113.251 91.976C113.251 91.448 113.315 90.912 113.443 90.368C113.571 89.808 113.747 89.232 113.971 88.64C114.211 88.048 114.499 87.432 114.835 86.792C115.171 86.152 115.547 85.488 115.963 84.8L118.267 80.936H121.627L121.723 81.176L118.675 86.096C118.243 86.8 117.859 87.472 117.523 88.112C117.203 88.752 116.915 89.368 116.659 89.96C116.419 90.552 116.195 91.152 115.987 91.76L115.291 89.84C115.499 89.296 115.779 88.808 116.131 88.376C116.483 87.928 116.883 87.552 117.331 87.248C117.779 86.928 118.251 86.688 118.747 86.528C119.243 86.352 119.731 86.264 120.211 86.264C121.155 86.264 122.019 86.52 122.803 87.032C123.603 87.528 124.235 88.192 124.699 89.024C125.179 89.856 125.419 90.768 125.419 91.76C125.419 92.96 125.155 94.032 124.627 94.976C124.115 95.904 123.395 96.64 122.467 97.184C121.555 97.728 120.515 98 119.347 98ZM119.395 94.952C119.939 94.952 120.419 94.832 120.835 94.592C121.267 94.336 121.603 93.984 121.843 93.536C122.083 93.088 122.203 92.576 122.203 92C122.203 91.504 122.075 91.04 121.819 90.608C121.579 90.16 121.243 89.8 120.811 89.528C120.395 89.256 119.931 89.12 119.419 89.12C118.859 89.12 118.355 89.256 117.907 89.528C117.475 89.784 117.131 90.128 116.875 90.56C116.635 90.976 116.515 91.448 116.515 91.976C116.515 92.552 116.635 93.064 116.875 93.512C117.131 93.944 117.475 94.296 117.907 94.568C118.339 94.824 118.835 94.952 119.395 94.952Z" fill="#333333"/>
</svg>
