<svg width="20" height="20" viewBox="0 0 20 20" fill="none" xmlns="http://www.w3.org/2000/svg">
<mask id="mask0_66_2205" style="mask-type:alpha" maskUnits="userSpaceOnUse" x="0" y="0" width="20" height="20">
<rect x="0.603516" y="0.530472" width="19" height="19" fill="#D9D9D9"/>
</mask>
<g mask="url(#mask0_66_2205)">
<path d="M9.27227 15.0576L6.46185 12.2471L7.60977 11.0992L9.27227 12.7617L12.5973 9.43672L13.7452 10.5846L9.27227 15.0576ZM4.56185 17.9471C4.12643 17.9471 3.75369 17.7921 3.44362 17.482C3.13355 17.172 2.97852 16.7992 2.97852 16.3638V5.28047C2.97852 4.84506 3.13355 4.47231 3.44362 4.16225C3.75369 3.85218 4.12643 3.69714 4.56185 3.69714H5.35352V2.11381H6.93685V3.69714H13.2702V2.11381H14.8535V3.69714H15.6452C16.0806 3.69714 16.4533 3.85218 16.7634 4.16225C17.0735 4.47231 17.2285 4.84506 17.2285 5.28047V16.3638C17.2285 16.7992 17.0735 17.172 16.7634 17.482C16.4533 17.7921 16.0806 17.9471 15.6452 17.9471H4.56185ZM4.56185 16.3638H15.6452V8.44714H4.56185V16.3638ZM4.56185 6.86381H15.6452V5.28047H4.56185V6.86381Z" fill="#B49758"/>
</g>
</svg>
