<svg width="24.000000" height="24.000000" viewBox="0 0 24 24" fill="none" xmlns="http://www.w3.org/2000/svg" xmlns:xlink="http://www.w3.org/1999/xlink">
	<desc>
			Created with Pixso.
	</desc>
	<defs/>
	<mask id="mask206_17" mask-type="alpha" maskUnits="userSpaceOnUse" x="0.000000" y="0.000000" width="24.000000" height="24.000000">
		<rect id="Bounding box" width="24.000000" height="24.000000" fill="#D9D9D9" fill-opacity="1.000000"/>
	</mask>
	<g mask="url(#mask206_17)">
		<path id="download" d="M12 16L7 11L8.39999 9.55005L11 12.1499L11 4L13 4L13 12.1499L15.6 9.55005L17 11L12 16ZM6 20C5.45001 20 4.97916 19.8042 4.58749 19.4126C4.19583 19.0208 4 18.55 4 18L4 15L6 15L6 18L18 18L18 15L20 15L20 18C20 18.55 19.8042 19.0208 19.4125 19.4126C19.0208 19.8042 18.55 20 18 20L6 20Z" fill="#D3B478" fill-opacity="1.000000" fill-rule="nonzero"/>
	</g>
</svg>
