<svg width="12.000000" height="12.000000" viewBox="0 0 12 12" fill="none" xmlns="http://www.w3.org/2000/svg" xmlns:xlink="http://www.w3.org/1999/xlink">
	<desc>
			Created with Pixso.
	</desc>
	<defs/>
	<path id="edit" d="M1.3335 10.6667L2.2832 10.6667L8.7998 4.15002L7.8501 3.20001L1.3335 9.71667L1.3335 10.6667ZM0 12L0 9.16669L8.7998 0.383362C8.93311 0.261108 9.08057 0.166687 9.2417 0.0999756C9.40283 0.0333252 9.57227 0 9.75 0C9.92773 0 10.1001 0.0333252 10.2666 0.0999756C10.4331 0.166687 10.5776 0.266663 10.7002 0.400024L11.6167 1.33331C11.75 1.45557 11.8472 1.59998 11.9082 1.76666C11.9692 1.93335 12 2.09998 12 2.26666C12 2.44446 11.9692 2.61389 11.9082 2.77502C11.8472 2.9361 11.75 3.08331 11.6167 3.21667L2.8335 12L0 12ZM8.31689 3.68335L7.8501 3.20001L8.7998 4.15002L8.31689 3.68335Z" fill="#FFFFFF" fill-opacity="1.000000" fill-rule="nonzero"/>
</svg>
