<svg width="12" height="13" viewBox="0 0 12 13" fill="none" xmlns="http://www.w3.org/2000/svg">
<path d="M7.45736 11.9833C7.23375 12.2069 6.95666 12.3188 6.62611 12.3188C6.29555 12.3188 6.01847 12.2069 5.79486 11.9833L0.661523 6.85C0.554579 6.74306 0.46951 6.61667 0.406315 6.47083C0.343121 6.325 0.311523 6.16945 0.311523 6.00417V1.83333C0.311523 1.5125 0.42576 1.23785 0.654232 1.00938C0.882704 0.780903 1.15736 0.666667 1.47819 0.666667H5.64902C5.8143 0.666667 5.96986 0.698264 6.11569 0.761459C6.26152 0.824653 6.38791 0.909723 6.49486 1.01667L11.6282 6.16458C11.8518 6.38819 11.9636 6.66285 11.9636 6.98854C11.9636 7.31424 11.8518 7.58889 11.6282 7.8125L7.45736 11.9833ZM6.62611 11.1667L10.7969 6.99583L5.64902 1.83333H1.47819V6.00417L6.62611 11.1667ZM2.93652 4.16667C3.17958 4.16667 3.38618 4.0816 3.55631 3.91146C3.72645 3.74132 3.81152 3.53472 3.81152 3.29167C3.81152 3.04861 3.72645 2.84201 3.55631 2.67188C3.38618 2.50174 3.17958 2.41667 2.93652 2.41667C2.69347 2.41667 2.48687 2.50174 2.31673 2.67188C2.14659 2.84201 2.06152 3.04861 2.06152 3.29167C2.06152 3.53472 2.14659 3.74132 2.31673 3.91146C2.48687 4.0816 2.69347 4.16667 2.93652 4.16667Z" fill="#D3B478"/>
</svg>
