<svg width="20" height="19" viewBox="0 0 20 19" fill="none" xmlns="http://www.w3.org/2000/svg">
<mask id="mask0_146_2692" style="mask-type:alpha" maskUnits="userSpaceOnUse" x="0" y="0" width="20" height="20">
<rect x="0.333984" y="0.000732422" width="19" height="19" fill="#D9D9D9"/>
</mask>
<g mask="url(#mask0_146_2692)">
<path d="M11.6149 16.9423C11.3114 17.2458 10.9354 17.3975 10.4868 17.3975C10.0382 17.3975 9.66213 17.2458 9.35866 16.9423L2.39199 9.97565C2.24685 9.83051 2.1314 9.65898 2.04564 9.46107C1.95987 9.26315 1.91699 9.05204 1.91699 8.82773V3.16732C1.91699 2.7319 2.07203 2.35916 2.3821 2.04909C2.69217 1.73902 3.06491 1.58398 3.50033 1.58398H9.16074C9.38505 1.58398 9.59616 1.62687 9.79408 1.71263C9.99199 1.79839 10.1635 1.91385 10.3087 2.05898L17.2753 9.04544C17.5788 9.34892 17.7305 9.72166 17.7305 10.1637C17.7305 10.6057 17.5788 10.9784 17.2753 11.2819L11.6149 16.9423ZM10.4868 15.834L16.1472 10.1736L9.16074 3.16732H3.50033V8.82773L10.4868 15.834ZM5.47949 6.33398C5.80935 6.33398 6.08974 6.21853 6.32064 5.98763C6.55154 5.75673 6.66699 5.47635 6.66699 5.14648C6.66699 4.81662 6.55154 4.53624 6.32064 4.30534C6.08974 4.07444 5.80935 3.95898 5.47949 3.95898C5.14963 3.95898 4.86925 4.07444 4.63835 4.30534C4.40744 4.53624 4.29199 4.81662 4.29199 5.14648C4.29199 5.47635 4.40744 5.75673 4.63835 5.98763C4.86925 6.21853 5.14963 6.33398 5.47949 6.33398Z" fill="#B49758"/>
</g>
</svg>
