<svg width="65" height="65" viewBox="0 0 65 65" fill="none" xmlns="http://www.w3.org/2000/svg">
<circle cx="32.5" cy="32.5" r="32.5" fill="#333333"/>
<mask id="mask0_337_1400" style="mask-type:alpha" maskUnits="userSpaceOnUse" x="20" y="20" width="25" height="25">
<rect x="20.5" y="20.5" width="24" height="24" fill="#D9D9D9"/>
</mask>
<g mask="url(#mask0_337_1400)">
<path d="M29.1 43L27.2 39.8L23.6 39L23.95 35.3L21.5 32.5L23.95 29.7L23.6 26L27.2 25.2L29.1 22L32.5 23.45L35.9 22L37.8 25.2L41.4 26L41.05 29.7L43.5 32.5L41.05 35.3L41.4 39L37.8 39.8L35.9 43L32.5 41.55L29.1 43ZM29.95 40.45L32.5 39.35L35.1 40.45L36.5 38.05L39.25 37.4L39 34.6L40.85 32.5L39 30.35L39.25 27.55L36.5 26.95L35.05 24.55L32.5 25.65L29.9 24.55L28.5 26.95L25.75 27.55L26 30.35L24.15 32.5L26 34.6L25.75 37.45L28.5 38.05L29.95 40.45ZM31.45 36.05L37.1 30.4L35.7 28.95L31.45 33.2L29.3 31.1L27.9 32.5L31.45 36.05Z" fill="white"/>
</g>
</svg>
