<svg width="65" height="65" viewBox="0 0 65 65" fill="none" xmlns="http://www.w3.org/2000/svg">
<circle cx="32.5" cy="32.5" r="32.5" fill="#333333"/>
<mask id="mask0_337_1410" style="mask-type:alpha" maskUnits="userSpaceOnUse" x="20" y="20" width="25" height="25">
<rect x="20.5" y="20.5" width="24" height="24" fill="#D9D9D9"/>
</mask>
<g mask="url(#mask0_337_1410)">
<path d="M34.75 41.9C34.3667 42.2833 33.8917 42.475 33.325 42.475C32.7583 42.475 32.2833 42.2833 31.9 41.9L23.1 33.1C22.9167 32.9167 22.7708 32.7 22.6625 32.45C22.5542 32.2 22.5 31.9333 22.5 31.65V24.5C22.5 23.95 22.6958 23.4792 23.0875 23.0875C23.4792 22.6958 23.95 22.5 24.5 22.5H31.65C31.9333 22.5 32.2 22.5542 32.45 22.6625C32.7 22.7708 32.9167 22.9167 33.1 23.1L41.9 31.925C42.2833 32.3083 42.475 32.7792 42.475 33.3375C42.475 33.8958 42.2833 34.3667 41.9 34.75L34.75 41.9ZM33.325 40.5L40.475 33.35L31.65 24.5H24.5V31.65L33.325 40.5ZM27 28.5C27.4167 28.5 27.7708 28.3542 28.0625 28.0625C28.3542 27.7708 28.5 27.4167 28.5 27C28.5 26.5833 28.3542 26.2292 28.0625 25.9375C27.7708 25.6458 27.4167 25.5 27 25.5C26.5833 25.5 26.2292 25.6458 25.9375 25.9375C25.6458 26.2292 25.5 26.5833 25.5 27C25.5 27.4167 25.6458 27.7708 25.9375 28.0625C26.2292 28.3542 26.5833 28.5 27 28.5Z" fill="white"/>
</g>
</svg>
