<svg width="48" height="48" viewBox="0 0 48 48" fill="none" xmlns="http://www.w3.org/2000/svg">
<g clip-path="url(#clip0_49_2975)">
<path d="M36.728 11.272L33.9 14.1C31.6098 11.8096 28.5963 10.3841 25.373 10.0665C22.1496 9.74883 18.9159 10.5587 16.2227 12.358C13.5295 14.1573 11.5435 16.8348 10.6031 19.9342C9.66268 23.0337 9.82605 26.3633 11.0654 29.3558C12.3047 32.3482 14.5432 34.8184 17.3997 36.3455C20.2561 37.8725 23.5536 38.3618 26.7304 37.7302C29.9071 37.0985 32.7666 35.3849 34.8215 32.8812C36.8765 30.3776 37.9998 27.239 38 24H42C42 28.1644 40.556 32.1999 37.9141 35.419C35.2722 38.6381 31.5959 40.8416 27.5115 41.654C23.4271 42.4664 19.1874 41.8375 15.5147 39.8744C11.8421 37.9112 8.96374 34.7354 7.37012 30.888C5.77651 27.0406 5.56623 22.7597 6.77512 18.7746C7.984 14.7895 10.5373 11.3469 13.9998 9.03332C17.4624 6.71974 21.6201 5.67832 25.7644 6.08653C29.9088 6.49474 33.7834 8.32731 36.728 11.272Z" fill="#A88140"/>
</g>
<defs>
<clipPath id="clip0_49_2975">
<rect width="48" height="48" fill="white"/>
</clipPath>
</defs>
</svg>
