<svg width="220" height="35" viewBox="0 0 220 35" fill="none" xmlns="http://www.w3.org/2000/svg">
<mask id="mask0_337_1335" style="mask-type:luminance" maskUnits="userSpaceOnUse" x="0" y="1" width="73" height="32">
<path d="M36.2965 28.5807C33.623 28.3763 25.9735 27.3112 16.2296 21.7576C15.2243 21.1516 14.2507 20.5069 13.2936 19.8551C10.2293 17.7694 7.09675 15.5675 4.94126 12.8277C4.64696 12.4542 4.37973 12.0679 4.14782 11.6674C3.92415 11.2834 3.73226 10.8818 3.67222 10.4625C3.44737 8.92644 5.23792 8.39328 6.72122 7.91296C9.18985 7.11439 11.8245 6.62821 14.4273 6.19721C14.4273 6.19721 23.9957 4.28417 36.8992 4.21605C49.8039 4.28417 59.3723 6.19721 59.3723 6.19721C61.9752 6.62821 64.6098 7.11557 67.0784 7.91296C68.5617 8.39328 70.3511 8.92644 70.1274 10.4625C70.0662 10.8818 69.8743 11.2834 69.6518 11.6674C69.4187 12.0679 69.1527 12.4542 68.8572 12.8277C66.7029 15.5675 63.5703 17.7694 60.506 19.8551C59.5478 20.5081 58.5754 21.1516 57.5677 21.7576C47.825 27.3112 40.1754 28.3775 37.5031 28.5807C37.3018 28.5959 37.1005 28.603 36.9004 28.603C36.7003 28.603 36.499 28.5959 36.2989 28.5807M12.5379 4.01289C9.71959 4.55192 6.86484 5.16142 4.19137 6.16081C2.58447 6.76091 0.645589 7.42795 0.889274 9.34921C0.956375 9.87416 1.16239 10.3768 1.4049 10.8583C1.65682 11.3574 1.94642 11.8412 2.26544 12.3086C4.60105 15.7354 7.99144 18.4893 11.3112 21.0988C12.3483 21.9149 13.4019 22.7206 14.492 23.4792C25.0446 30.4256 33.3299 31.7597 36.2259 32.0145C36.6614 32.0533 37.097 32.0533 37.5314 32.0145C40.4262 31.7597 48.7115 30.4256 59.2652 23.4792C60.3541 22.7206 61.4078 21.9149 62.4461 21.0988C65.7658 18.4893 69.1562 15.7343 71.4906 12.3086C71.8097 11.8412 72.0993 11.3574 72.3512 10.8583C72.5925 10.3768 72.7997 9.87416 72.8668 9.34921C73.1093 7.42912 71.1704 6.76208 69.5647 6.16081C66.8912 5.16142 64.0365 4.5531 61.2171 4.01289C61.2171 4.01289 50.854 1.61953 36.8769 1.53497C22.9009 1.6207 12.5379 4.01289 12.5379 4.01289Z" fill="white"/>
</mask>
<g mask="url(#mask0_337_1335)">
<path d="M73.1093 1.53497H0.646729V32.0521H73.1093V1.53497Z" fill="url(#paint0_linear_337_1335)"/>
</g>
<mask id="mask1_337_1335" style="mask-type:luminance" maskUnits="userSpaceOnUse" x="0" y="0" width="75" height="35">
<path d="M25.6321 13.3549H39.1148L36.8392 18.6619C36.1164 20.3471 36.2895 22.2648 37.3031 23.7939C38.3166 25.3229 40.0177 26.2365 41.8565 26.2365H51.6322L51.6051 26.2495C44.9256 29.3204 39.8918 30.0532 37.8104 30.2282C37.3996 30.2623 36.9876 30.2623 36.5767 30.2282C34.4565 30.0509 29.2803 29.2958 22.4207 26.0827L20.9209 25.3769L20.483 25.1409L22.2653 20.9648H31.8149L33.8314 16.3601H24.2818L25.6333 13.3537L25.6321 13.3549ZM17.9625 23.6976C17.8189 23.6154 17.6741 23.5273 17.5305 23.4439L21.6625 13.9714C22.7409 11.5088 24.3678 10.3614 26.7799 10.3614H56.2398L55.67 11.6615H46.5901C45.0998 11.6615 43.8649 12.2886 43.0161 13.4489L42.7465 13.8517C42.6264 14.0525 42.5158 14.2686 42.4157 14.494L40.3403 19.1058C39.8235 20.286 39.8282 21.2913 40.3532 22.0922C40.7029 22.6254 41.4292 23.2607 42.9007 23.2607L57.1945 23.2466C56.4623 23.6799 55.7042 24.1755 54.999 24.556H41.9154C40.6158 24.556 39.4609 23.936 38.7452 22.8567C38.0294 21.7763 37.9117 20.4739 38.4214 19.2843L40.976 13.3267L41.6847 11.672H39.8823L26.6469 11.6744C25.4061 11.6744 24.2842 12.4072 23.7886 13.5393L21.8073 17.9831H31.3569L30.7871 19.2843H21.234L19.0785 24.32L17.9613 23.6976H17.9625ZM16.0849 22.5725C15.0548 21.8937 14.0577 21.175 13.0771 20.4457C12.5179 20.0312 11.9587 19.6119 11.4019 19.1868C10.6131 18.5761 10.5967 18.5855 10.3294 18.3518C8.14687 16.622 6.08556 14.7571 4.52457 12.5927C4.2232 12.1747 3.95009 11.7437 3.71229 11.2962C3.48391 10.8664 3.28613 10.4178 3.22492 9.94807C2.99536 8.23232 4.82829 7.63574 6.3469 7.10023C8.87439 6.20653 11.5738 5.6628 14.239 5.18131C14.239 5.18131 24.0382 3.04396 37.2536 2.96763C50.4679 3.04396 60.2671 5.18131 60.2671 5.18131C62.9323 5.6628 65.6305 6.20771 68.158 7.10023C69.6778 7.63691 71.5107 8.23232 71.2811 9.94807C71.2176 10.4178 71.021 10.8664 70.7938 11.2962C70.5548 11.7437 70.2817 12.1758 69.9803 12.5927C69.0656 13.8622 67.9755 15.0272 66.7924 16.1252C66.3121 16.5598 66.4039 16.4752 65.9495 16.8827C65.501 17.2738 65.043 17.6554 64.5769 18.0312C63.7952 18.6677 63.4809 18.8967 63.4809 18.8967C62.8004 19.4229 62.1129 19.9384 61.4278 20.4469C60.8969 20.8427 60.3989 21.1433 59.8562 21.5273L59.7514 21.5954L42.9019 21.6095C41.6694 21.6095 41.3233 20.9953 41.8613 19.767L43.9355 15.1552C44.4735 13.928 45.3576 13.3138 46.5913 13.3138H56.7566L58.7744 8.70911H26.7811C23.7003 8.70911 21.4871 10.244 20.1427 13.3138L16.099 22.5819C16.099 22.5819 16.0896 22.576 16.0849 22.5737M12.2436 2.76916C9.35705 3.37161 6.43284 4.05274 3.69581 5.16957C2.05123 5.8413 0.0652627 6.58703 0.313656 8.7326C0.381935 9.31978 0.593834 9.8823 0.842227 10.419C1.10004 10.9768 1.39552 11.5182 1.72279 12.0408C3.31674 14.5927 5.39218 16.8122 7.60653 18.8721C7.89024 19.1351 8.17395 19.3959 8.46119 19.6554C9.29584 20.4082 10.1446 21.1421 10.9875 21.8644C12.0517 22.7769 13.13 23.6764 14.246 24.5255C25.0541 32.2892 33.5383 33.7783 36.5037 34.0637C36.9487 34.1072 37.3961 34.1072 37.8399 34.0637C40.8065 33.7783 49.2907 32.2892 60.0987 24.5255C61.2147 23.6764 62.2931 22.7769 63.3561 21.8644C64.4744 20.9061 65.5999 19.9278 66.6935 18.912C66.9737 18.6525 67.2503 18.3894 67.5246 18.124C67.7754 17.8809 68.0249 17.6378 68.271 17.3912C68.4817 17.1775 68.6913 16.9626 68.8984 16.7465C70.284 15.2914 71.559 13.7401 72.6196 12.0408C72.9457 11.5182 73.2424 10.9768 73.5002 10.419C73.7486 9.8823 73.9617 9.31978 74.0288 8.7326C74.2772 6.58703 72.2924 5.8413 70.6466 5.16957C67.9096 4.05274 64.9865 3.37278 62.0988 2.76916C62.0988 2.76916 51.485 0.0951238 37.1712 0C22.8562 0.0951238 12.2436 2.76916 12.2436 2.76916Z" fill="white"/>
</mask>
<g mask="url(#mask1_337_1335)">
<path d="M74.2759 0H0.0651855V34.14H74.2759V0Z" fill="url(#paint1_linear_337_1335)"/>
</g>
<mask id="mask2_337_1335" style="mask-type:luminance" maskUnits="userSpaceOnUse" x="85" y="8" width="130" height="10">
<path d="M85.1078 8.42395V17.6343H86.7204V13.8841H91.3471V12.4096H86.7204V9.89636H91.9391V8.42395H85.1078ZM93.3965 17.6343H95.007V8.42395H93.3965V17.6343ZM98.6649 9.89636H101.014C102.207 9.89636 102.915 10.4374 102.915 11.4225V11.4514C102.915 12.3827 102.178 12.9899 101.027 12.9899H98.6649V9.89843V9.89636ZM97.0544 8.42395V17.6343H98.6649V14.423H100.687L102.942 17.6343H104.842L102.366 14.1463C103.652 13.7787 104.554 12.8701 104.554 11.3564V11.3295C104.554 10.5262 104.279 9.84267 103.793 9.34292C103.205 8.76263 102.298 8.42188 101.145 8.42188H97.0544V8.42395ZM113.259 8.42395V9.92321H116.17V17.6343H117.795V9.92321H120.705V8.42395H113.257H113.259ZM140.792 8.42395V12.2526H136.413V8.42395H134.801V17.6343H136.413V13.7519H140.792V17.6343H142.406V8.42395H140.792ZM155.191 17.6343H156.802V8.42395H155.191V17.6343ZM168.117 8.42395V17.6343H174.988V16.1866H169.73V13.7127H174.331V12.2671H169.73V9.87158H174.921V8.42395H168.117ZM200.854 9.89636H203.203C204.396 9.89636 205.104 10.4374 205.104 11.4225V11.4514C205.104 12.3827 204.371 12.9899 203.216 12.9899H200.854V9.89843V9.89636ZM199.243 8.42395V17.6343H200.854V14.423H202.874L205.131 17.6343H207.031L204.555 14.1463C205.839 13.7787 206.743 12.8701 206.743 11.3564V11.3295C206.743 10.5262 206.47 9.84267 205.981 9.34292C205.391 8.76263 204.489 8.42188 203.336 8.42188H199.245L199.243 8.42395ZM193.265 10.2908L194.85 13.9749H191.691L193.265 10.2908ZM192.542 8.3558L188.506 17.6343H190.157L191.101 15.4102H195.44L196.372 17.6343H198.074L194.037 8.3558H192.542ZM105.879 10.9619V10.9888C105.879 12.6863 106.981 13.2645 108.935 13.7395C110.638 14.1339 111.005 14.4891 111.005 15.1479V15.1727C111.005 15.8707 110.378 16.3312 109.38 16.3312C108.239 16.3312 107.361 15.8975 106.484 15.1355L105.513 16.292C106.614 17.2791 107.937 17.7664 109.34 17.7664C111.266 17.7664 112.617 16.7401 112.617 15.0157V14.9909C112.617 13.4648 111.607 12.7668 109.668 12.2939C107.912 11.8727 107.492 11.5567 107.492 10.8463V10.8215C107.492 10.2165 108.045 9.72909 108.986 9.72909C109.825 9.72909 110.653 10.0574 111.479 10.6749L112.344 9.45237C111.413 8.70274 110.351 8.29385 109.013 8.29385C107.192 8.29385 105.881 9.38628 105.881 10.964M208.07 10.964V10.9909C208.07 12.6884 209.169 13.2666 211.124 13.7416C212.829 14.136 213.198 14.4912 213.198 15.15V15.1747C213.198 15.8727 212.568 16.3333 211.571 16.3333C210.432 16.3333 209.554 15.8996 208.675 15.1376L207.704 16.294C208.805 17.2811 210.128 17.7685 211.531 17.7685C213.459 17.7685 214.808 16.7421 214.808 15.0178V14.993C214.808 13.4669 213.8 12.7689 211.86 12.296C210.105 11.8747 209.685 11.5588 209.685 10.8484V10.8236C209.685 10.2185 210.235 9.73115 211.177 9.73115C212.016 9.73115 212.842 10.0595 213.668 10.677L214.533 9.45443C213.601 8.7048 212.542 8.29591 211.204 8.29591C209.383 8.29591 208.072 9.38835 208.072 10.9661M125.131 13.0332V13.0601C125.131 15.7034 127.123 17.7953 129.797 17.7953C131.515 17.7953 132.563 17.1634 133.519 16.1639L132.484 15.1107C131.698 15.848 130.977 16.3085 129.849 16.3085C128.094 16.3085 126.82 14.834 126.82 13.0312V13.0064C126.82 11.2036 128.092 9.75593 129.849 9.75593C130.899 9.75593 131.685 10.2164 132.42 10.9L133.455 9.70224C132.577 8.85968 131.555 8.267 129.864 8.267C127.083 8.267 125.129 10.4106 125.129 13.0312M145.648 13.0312V13.0064C145.648 11.2139 146.919 9.75593 148.743 9.75593C150.567 9.75593 151.863 11.2428 151.863 13.0312V13.058C151.863 14.8464 150.591 16.3064 148.768 16.3064C146.944 16.3064 145.648 14.8195 145.648 13.0291M143.957 13.0291V13.0559C143.957 15.6456 145.923 17.7912 148.741 17.7912C151.558 17.7912 153.552 15.6208 153.552 13.027V13.0023C153.552 10.4085 151.585 8.26494 148.768 8.26494C145.95 8.26494 143.957 10.4353 143.957 13.0291ZM158.445 13.0291V13.0559C158.445 15.6993 160.437 17.7912 163.112 17.7912C164.83 17.7912 165.879 17.1593 166.836 16.1598L165.801 15.1066C165.014 15.8438 164.291 16.3043 163.163 16.3043C161.408 16.3043 160.137 14.8299 160.137 13.027V13.0023C160.137 11.1994 161.41 9.7518 163.163 9.7518C164.215 9.7518 164.999 10.2123 165.734 10.8959L166.769 9.69811C165.89 8.85555 164.869 8.26287 163.178 8.26287C160.4 8.26287 158.445 10.4064 158.445 13.027M179.621 13.027V13.0539C179.621 15.6972 181.614 17.7891 184.289 17.7891C186.003 17.7891 187.054 17.1572 188.011 16.1577L186.976 15.1045C186.189 15.8418 185.469 16.3023 184.34 16.3023C182.583 16.3023 181.312 14.8278 181.312 13.025V13.0002C181.312 11.1974 182.583 9.74974 184.34 9.74974C185.39 9.74974 186.175 10.2103 186.912 10.8938L187.947 9.69605C187.069 8.85349 186.044 8.2608 184.353 8.2608C181.575 8.2608 179.621 10.4044 179.621 13.025" fill="white"/>
</mask>
<g mask="url(#mask2_337_1335)">
<path d="M214.802 8.26562H85.1078V17.7919H214.802V8.26562Z" fill="url(#paint2_linear_337_1335)"/>
</g>
<path d="M216.851 4.60577C216.963 4.59545 217.11 4.58925 217.284 4.58925C217.824 4.58925 218.096 4.75652 218.096 5.09313C218.096 5.42974 217.849 5.60321 217.357 5.60321H216.854V4.60783L216.851 4.60577ZM216.439 4.33111V7.17475H216.851V5.91711H217.375C217.797 5.91711 218.069 6.33632 218.185 7.17475H218.597C218.526 6.73902 218.448 6.42305 218.356 6.22893C218.269 6.03275 218.143 5.88613 217.982 5.78494C218.321 5.64038 218.493 5.40083 218.493 5.06835C218.493 4.81848 218.383 4.62023 218.166 4.47361C217.947 4.32698 217.653 4.25471 217.282 4.25471C217.034 4.25471 216.752 4.28155 216.439 4.33111ZM215.197 5.71886C215.197 4.51491 216.177 3.53812 217.383 3.53812C218.59 3.53812 219.569 4.51491 219.569 5.71886C219.569 6.92281 218.588 7.89959 217.383 7.89959C216.179 7.89959 215.197 6.92074 215.197 5.71886ZM215.533 3.87266C215.038 4.36622 214.767 5.02085 214.767 5.71886C214.767 6.41686 215.038 7.07149 215.533 7.56298C216.025 8.05447 216.684 8.32707 217.383 8.32707C218.083 8.32707 218.739 8.05654 219.232 7.56298C219.727 7.06943 220 6.41273 220 5.71886C220 5.02498 219.727 4.36622 219.232 3.87266C218.739 3.3791 218.081 3.10858 217.383 3.10858C216.686 3.10858 216.025 3.3791 215.533 3.87266Z" fill="url(#paint3_linear_337_1335)"/>
<path d="M117.203 28.7592C117.203 28.9616 117.161 29.1392 117.081 29.2941C117 29.4469 116.888 29.5749 116.745 29.6803C116.602 29.7835 116.437 29.8641 116.25 29.9178C116.062 29.9714 115.863 29.9983 115.65 29.9983H113.323V25.1949H115.901C116.068 25.1949 116.219 25.23 116.354 25.3023C116.489 25.3746 116.604 25.4675 116.7 25.5831C116.795 25.6988 116.867 25.8289 116.919 25.9755C116.971 26.1221 116.998 26.2708 116.998 26.4195C116.998 26.6549 116.94 26.8738 116.822 27.0782C116.704 27.2848 116.532 27.4355 116.306 27.5346C116.582 27.6152 116.801 27.7618 116.961 27.9724C117.122 28.181 117.201 28.4453 117.201 28.7613L117.203 28.7592ZM114.259 25.992V27.2022H115.507C115.665 27.2022 115.799 27.1485 115.911 27.039C116.023 26.9316 116.077 26.7829 116.077 26.593C116.077 26.403 116.025 26.2605 115.923 26.1531C115.822 26.0457 115.696 25.9899 115.547 25.9899H114.259V25.992ZM116.261 28.5837C116.261 28.499 116.246 28.4164 116.217 28.3359C116.188 28.2574 116.149 28.1893 116.099 28.1294C116.05 28.0716 115.992 28.0241 115.923 27.991C115.855 27.958 115.781 27.9415 115.7 27.9415H114.261V29.2053H115.652C115.739 29.2053 115.818 29.1888 115.892 29.1578C115.967 29.1248 116.031 29.0814 116.085 29.0256C116.139 28.9699 116.182 28.9038 116.213 28.8274C116.244 28.751 116.261 28.6704 116.261 28.5837Z" fill="white"/>
<path d="M120.31 29.205C120.532 29.205 120.718 29.1596 120.869 29.0708C121.02 28.9799 121.142 28.8643 121.235 28.7197C121.329 28.5752 121.393 28.41 121.432 28.2221C121.469 28.0341 121.49 27.8421 121.49 27.6438V25.1946H122.419V27.6438C122.419 27.9722 122.38 28.2819 122.301 28.5711C122.223 28.8602 122.099 29.1121 121.929 29.3289C121.759 29.5458 121.542 29.7172 121.275 29.8432C121.008 29.9691 120.689 30.0331 120.318 30.0331C119.948 30.0331 119.608 29.9671 119.339 29.8328C119.07 29.7007 118.853 29.5231 118.685 29.3042C118.517 29.0853 118.397 28.8313 118.323 28.5421C118.248 28.253 118.211 27.9536 118.211 27.6418V25.1926H119.147V27.6418C119.147 27.8462 119.165 28.0403 119.205 28.2282C119.244 28.4162 119.308 28.5814 119.401 28.7259C119.494 28.8705 119.614 28.9861 119.764 29.0749C119.913 29.1617 120.097 29.2071 120.312 29.2071L120.31 29.205Z" fill="white"/>
<path d="M124.243 25.1926L125.429 27.5055L126.636 25.1926H127.646L125.897 28.317V29.996H124.968V28.3047L123.225 25.1926H124.241H124.243Z" fill="white"/>
<path d="M130.518 30.8757V24.7527H131.29V30.8757H130.518Z" fill="white"/>
<path d="M137.502 26.4503C137.471 26.4193 137.413 26.3759 137.328 26.3222C137.246 26.2685 137.142 26.2149 137.024 26.1632C136.904 26.1116 136.774 26.0682 136.635 26.0311C136.494 25.9939 136.351 25.9774 136.206 25.9774C135.95 25.9774 135.757 26.0249 135.631 26.1199C135.505 26.2149 135.44 26.3491 135.44 26.5205C135.44 26.6196 135.465 26.7022 135.511 26.7683C135.558 26.8344 135.627 26.8922 135.718 26.9397C135.809 26.9893 135.923 27.0347 136.059 27.0739C136.198 27.1152 136.357 27.1586 136.538 27.202C136.774 27.266 136.987 27.3321 137.179 27.4043C137.372 27.4766 137.533 27.5675 137.668 27.6749C137.8 27.7823 137.904 27.9124 137.976 28.0631C138.049 28.2139 138.084 28.3997 138.084 28.6207C138.084 28.8788 138.036 29.0977 137.939 29.2815C137.842 29.4632 137.711 29.6119 137.546 29.7255C137.38 29.837 137.19 29.9196 136.976 29.9733C136.761 30.025 136.538 30.0518 136.302 30.0518C135.939 30.0518 135.583 29.9981 135.229 29.8887C134.875 29.7792 134.561 29.6264 134.279 29.4281L134.693 28.6228C134.734 28.6641 134.807 28.7157 134.913 28.7818C135.018 28.8478 135.144 28.9119 135.289 28.9779C135.434 29.044 135.594 29.0977 135.772 29.1432C135.948 29.1886 136.13 29.2113 136.314 29.2113C136.829 29.2113 137.086 29.0461 137.086 28.7177C137.086 28.6145 137.057 28.5257 136.997 28.4534C136.939 28.3811 136.854 28.3171 136.747 28.2634C136.639 28.2097 136.506 28.1602 136.353 28.1147C136.2 28.0693 136.028 28.0197 135.838 27.9661C135.608 27.902 135.407 27.8339 135.238 27.7595C135.068 27.6852 134.927 27.5964 134.813 27.4952C134.699 27.394 134.614 27.2763 134.559 27.1421C134.503 27.0099 134.474 26.8509 134.474 26.665C134.474 26.4214 134.519 26.2045 134.608 26.0145C134.699 25.8245 134.823 25.6676 134.985 25.5416C135.146 25.4157 135.333 25.3207 135.544 25.2546C135.757 25.1885 135.985 25.1555 136.229 25.1555C136.569 25.1555 136.881 25.2092 137.165 25.3145C137.45 25.4219 137.699 25.5458 137.912 25.6903L137.498 26.4482L137.502 26.4503Z" fill="white"/>
<path d="M142.473 29.1782V29.996H139.129V25.1926H142.413V26.0103H140.065V27.1668H142.094V27.9247H140.065V29.1761H142.473V29.1782Z" fill="white"/>
<path d="M143.545 29.996V25.1926H144.48V29.1761H146.936V29.9939H143.545V29.996Z" fill="white"/>
<path d="M147.844 29.996V25.1926H148.78V29.1761H151.235V29.9939H147.844V29.996Z" fill="white"/>
<path d="M154.146 30.8757V24.7527H154.918V30.8757H154.146Z" fill="white"/>
<path d="M161.863 26.0103H160.323V29.996H159.394V26.0103H157.853V25.1926H161.861V26.0103H161.863Z" fill="white"/>
<path d="M162.799 29.996V25.1926H164.929C165.151 25.1926 165.356 25.238 165.544 25.3309C165.732 25.4239 165.894 25.5457 166.028 25.6964C166.163 25.8472 166.271 26.0186 166.347 26.2107C166.424 26.4027 166.461 26.5948 166.461 26.7889C166.461 27.1007 166.382 27.3836 166.227 27.6376C166.072 27.8916 165.861 28.0754 165.594 28.189L166.693 29.996H165.641L164.658 28.3852H163.735V29.996H162.799ZM163.735 27.5674H164.908C164.993 27.5674 165.074 27.5468 165.149 27.5055C165.223 27.4642 165.287 27.4084 165.341 27.3403C165.395 27.27 165.438 27.1874 165.469 27.0924C165.5 26.9975 165.517 26.8963 165.517 26.7889C165.517 26.6815 165.498 26.572 165.463 26.4771C165.428 26.3821 165.378 26.2995 165.318 26.2292C165.256 26.159 165.188 26.1053 165.107 26.0661C165.026 26.0269 164.948 26.0083 164.867 26.0083H163.735V27.5654V27.5674Z" fill="white"/>
<path d="M169.018 25.1926H169.846L171.678 29.996H170.715L170.268 28.7982H168.585L168.144 29.996H167.181L169.02 25.1926H169.018ZM170.096 28.1415L169.432 26.254L168.74 28.1415H170.096Z" fill="white"/>
<path d="M172.545 29.996V25.1926H174.294C174.687 25.1926 175.033 25.2545 175.329 25.3826C175.625 25.5085 175.872 25.6799 176.072 25.8968C176.271 26.1136 176.42 26.3676 176.52 26.6588C176.619 26.95 176.669 27.2597 176.669 27.5881C176.669 27.9536 176.613 28.284 176.503 28.5793C176.393 28.8746 176.232 29.1266 176.025 29.3372C175.816 29.5478 175.567 29.7089 175.275 29.8246C174.984 29.9402 174.656 29.998 174.294 29.998H172.545V29.996ZM175.725 27.5881C175.725 27.3588 175.694 27.1461 175.629 26.952C175.565 26.7579 175.474 26.5906 175.352 26.4502C175.23 26.3098 175.079 26.2024 174.901 26.126C174.723 26.0496 174.52 26.0103 174.294 26.0103H173.481V29.1761H174.294C174.526 29.1761 174.729 29.1348 174.909 29.0543C175.087 28.9737 175.236 28.8622 175.356 28.7197C175.476 28.5773 175.567 28.41 175.631 28.2159C175.696 28.0217 175.727 27.8111 175.727 27.586L175.725 27.5881Z" fill="white"/>
<path d="M181.082 29.1782V29.996H177.739V25.1926H181.022V26.0103H178.675V27.1668H180.703V27.9247H178.675V29.1761H181.082V29.1782Z" fill="white"/>
<path d="M182.047 28.5483V27.7305H184.1V28.5483H182.047Z" fill="white"/>
<path d="M185.328 29.996V25.1926H186.264V29.996H185.328Z" fill="white"/>
<path d="M188.543 26.9192V29.9983H187.607V25.1949H188.332L190.841 28.3462V25.2011H191.776V29.9983H191.017L188.541 26.9192H188.543Z" fill="white"/>
<defs>
<linearGradient id="paint0_linear_337_1335" x1="0.856344" y1="17.1763" x2="72.7854" y2="17.1763" gradientUnits="userSpaceOnUse">
<stop stop-color="#683C22"/>
<stop offset="0.24" stop-color="#683C22"/>
<stop offset="0.59" stop-color="#744928"/>
<stop offset="1" stop-color="#624031"/>
</linearGradient>
<linearGradient id="paint1_linear_337_1335" x1="0.307587" y1="16.857" x2="73.9736" y2="16.857" gradientUnits="userSpaceOnUse">
<stop stop-color="#E8C77C"/>
<stop offset="0.24" stop-color="#A88140"/>
<stop offset="0.41" stop-color="#D0AE68"/>
<stop offset="0.59" stop-color="#906A30"/>
<stop offset="1" stop-color="#E8CA87"/>
</linearGradient>
<linearGradient id="paint2_linear_337_1335" x1="85.0966" y1="13.6634" x2="214.629" y2="13.6634" gradientUnits="userSpaceOnUse">
<stop stop-color="#E8C77C"/>
<stop offset="0.24" stop-color="#A88140"/>
<stop offset="0.41" stop-color="#D0AE68"/>
<stop offset="0.59" stop-color="#906A30"/>
<stop offset="1" stop-color="#E8CA87"/>
</linearGradient>
<linearGradient id="paint3_linear_337_1335" x1="217.383" y1="8.32707" x2="217.383" y2="3.10652" gradientUnits="userSpaceOnUse">
<stop stop-color="#E8C77C"/>
<stop offset="0.45" stop-color="#D0AE68"/>
<stop offset="1" stop-color="#E8CA87"/>
</linearGradient>
</defs>
</svg>
