<svg width="23" height="17" viewBox="0 0 23 17" fill="none" xmlns="http://www.w3.org/2000/svg">
<path fill-rule="evenodd" clip-rule="evenodd" d="M10.3258 0.130001C4.75084 0.902618 0.605192 5.92895 0.602539 11.5528C0.607887 12.7432 0.682601 13.5643 0.845353 14.374C0.850967 14.4015 0.854573 14.4332 0.858308 14.4659C0.872326 14.589 0.888164 14.728 1.01879 14.7235C1.1809 14.717 1.15835 14.5893 1.13811 14.4747C1.1317 14.4384 1.12552 14.4034 1.12552 14.374C1.12285 13.496 1.21091 12.6294 1.38435 11.7713C2.26221 7.41538 5.92577 3.92329 10.0803 3.56811C13.8052 3.24987 16.839 4.6791 19.1231 7.8416C19.3152 8.10585 19.4566 8.12006 19.7155 7.99503C20.2945 7.71373 20.8788 7.43812 21.4792 7.20796C21.8608 7.06305 21.9061 6.91814 21.7193 6.52318C19.59 2.05364 15.0219 -0.520683 10.3258 0.130001ZM2.39999 14.743H2.40001H2.40002C2.48189 14.746 2.56372 14.7491 2.64502 14.7491V14.7378H3.65096L3.66173 14.738C3.81478 14.7409 3.94981 14.7434 3.94981 14.4991C3.95248 14.2661 3.87243 14.1837 3.65897 14.1865C3.49045 14.1895 3.32193 14.1846 3.1534 14.1798L3.15333 14.1798C3.00168 14.1754 2.85003 14.171 2.69839 14.1723C2.48226 14.1752 2.41555 14.1013 2.43689 13.8541C2.49827 13.0926 2.6637 12.3567 2.86382 11.6236C2.96255 11.2627 3.10663 11.2087 3.40548 11.3906C3.54782 11.477 3.70245 11.5409 3.85728 11.6049C3.97238 11.6525 4.0876 11.7002 4.19796 11.7571C4.3714 11.848 4.4728 11.8253 4.55018 11.6293C4.62756 11.4304 4.52349 11.3764 4.37941 11.3139C4.25191 11.26 4.12624 11.2004 4.0005 11.1407L4.00045 11.1407C3.82094 11.0556 3.64133 10.9704 3.45618 10.9019C3.20803 10.8081 3.21337 10.6859 3.3201 10.4728C3.56558 9.98692 3.82974 9.5124 4.13659 9.06914C4.43366 8.64293 4.75208 8.61357 5.09184 8.98106C5.1248 9.01616 5.15922 9.04972 5.19349 9.08312C5.27294 9.16058 5.35157 9.23724 5.40936 9.33055C5.62366 9.66789 5.77085 9.51153 5.93082 9.34161C5.9541 9.31688 5.97765 9.29186 6.00172 9.26804L6.03219 9.23796C6.21787 9.05526 6.37675 8.89893 6.06042 8.64293C5.91952 8.52995 5.79818 8.38737 5.67658 8.24447C5.60245 8.15735 5.52821 8.07012 5.44939 7.9894C5.29463 7.83028 5.29196 7.72231 5.46807 7.56603C5.97237 7.11709 6.51937 6.73918 7.09038 6.39537C7.2905 6.27603 7.37589 6.34422 7.45327 6.55449C7.53184 6.76714 7.62145 6.97445 7.71103 7.18166L7.71103 7.18167L7.71104 7.18168C7.76747 7.31224 7.82389 7.44276 7.87753 7.57456L7.88406 7.59044C7.93945 7.72528 7.98346 7.83245 8.16837 7.7422C8.35782 7.65127 8.37383 7.54046 8.29378 7.36145C8.23655 7.23393 8.18354 7.10417 8.13055 6.97448C8.05012 6.77763 7.96976 6.58095 7.87486 6.39253C7.74678 6.13112 7.81882 6.03735 8.06164 5.94358C8.73671 5.68217 9.43314 5.52874 10.1376 5.40372C10.5271 5.33552 10.6605 5.47191 10.6125 5.88391C10.5896 6.07879 10.594 6.27656 10.5984 6.47412L10.5984 6.47422C10.6001 6.55317 10.6018 6.63208 10.6018 6.71077L10.6018 6.7167C10.6018 6.82512 10.6018 6.9219 10.7433 6.96933C11.2476 7.13982 11.5037 6.95229 11.5091 6.38969C11.5103 6.33754 11.5119 6.28524 11.5136 6.2329L11.5136 6.23271L11.5136 6.23252V6.2325V6.23247C11.5191 6.05679 11.5247 5.88058 11.5144 5.70775C11.4957 5.44634 11.5971 5.36962 11.8319 5.39235C12.3789 5.44634 12.9126 5.56284 13.4462 5.69638C13.649 5.74753 13.6784 5.86403 13.6143 6.05156C13.4969 6.40105 13.3822 6.75339 13.2728 7.10572C13.2667 7.1248 13.2597 7.14383 13.2528 7.16272C13.2083 7.28447 13.1659 7.40038 13.3715 7.48647C13.6026 7.58492 13.6436 7.44887 13.6851 7.31099C13.6915 7.28968 13.6979 7.26833 13.7051 7.24779C13.8145 6.92955 13.9239 6.60848 14.0039 6.28171C14.0786 5.97484 14.2094 5.95779 14.4602 6.07429C15.218 6.42662 15.9144 6.88125 16.5708 7.41544C16.8163 7.61434 16.8803 7.76493 16.6082 7.99793C16.4462 8.13544 16.2997 8.29519 16.1533 8.4547C16.097 8.51601 16.0408 8.57728 15.9838 8.63725C15.9737 8.64762 15.9634 8.65762 15.9531 8.66749L15.9531 8.6675L15.9531 8.6675C15.8795 8.73867 15.813 8.80292 15.9091 8.95264C16.2639 9.50956 16.4107 9.53797 16.8536 9.07766C16.8925 9.03716 16.9331 8.99814 16.9737 8.95917C17.0582 8.87785 17.1426 8.79672 17.2112 8.7026C17.438 8.38436 17.6461 8.40141 17.8115 8.73954C18.065 9.25667 18.3799 9.27656 18.8282 9.00379C19.0763 8.85319 19.127 8.79068 18.9402 8.53495C16.4641 5.16788 13.2248 3.72728 9.28638 4.51151C4.73696 5.41792 1.69244 9.28225 1.39626 14.1979C1.37225 14.5957 1.42828 14.8202 1.86855 14.7548C2.0424 14.7295 2.22127 14.7362 2.39999 14.743ZM22.6038 8.08869C22.4965 8.34197 22.2976 8.48457 22.1049 8.62271C22.0771 8.64264 22.0494 8.66248 22.0221 8.68255C20.1788 10.0379 18.2286 11.2105 16.2794 12.3826L16.2793 12.3826L16.2779 12.3835C16.0944 12.4938 15.911 12.6041 15.7276 12.7145C14.2067 13.6303 12.674 14.521 11.1413 15.4117L10.3751 15.8571C9.8921 16.1384 9.42515 16.0702 9.07027 15.7094C8.72339 15.357 8.61399 14.8285 8.79277 14.3711C8.89149 14.121 9.05159 13.925 9.28106 13.8141C9.83267 13.5499 10.3838 13.2845 10.9348 13.0191L10.9348 13.0191C14.5503 11.2776 18.1652 9.53649 21.9207 8.14836C21.9488 8.13798 21.9773 8.12653 22.0063 8.11491C22.1832 8.04382 22.3764 7.96619 22.6011 8.08585L22.6038 8.08869ZM17.881 11.7803C17.8144 11.8154 17.7368 11.8564 17.7711 12.0271V12.0242C17.8797 11.9786 17.9883 11.9337 18.0967 11.889C18.393 11.7667 18.6873 11.6452 18.9745 11.5099C19.164 11.4219 19.2733 11.4105 19.3454 11.6548C19.5482 12.3339 19.6976 13.0216 19.759 13.7348C19.7803 13.9848 19.7136 14.0871 19.4655 14.07C19.3268 14.0604 19.187 14.0621 19.0467 14.0639C18.8982 14.0657 18.7492 14.0675 18.6009 14.0558C18.3314 14.0331 18.2674 14.1496 18.2674 14.4167C18.2674 14.6639 18.3341 14.7577 18.5769 14.752C19.2173 14.7378 19.855 14.7378 20.4928 14.752C20.7302 14.7577 20.8156 14.6753 20.8076 14.4195C20.7649 13.1835 20.5541 11.9845 20.1299 10.828C20.0418 10.5893 19.9618 10.5353 19.7403 10.6746C19.3552 10.9141 18.9647 11.1431 18.5743 11.3722C18.3533 11.5018 18.1324 11.6314 17.9125 11.7628C17.9027 11.7689 17.892 11.7745 17.881 11.7803Z" fill="#B49758"/>
</svg>
