<svg width="16" height="17" viewBox="0 0 16 17" fill="none" xmlns="http://www.w3.org/2000/svg">
<mask id="mask0_337_101" style="mask-type:alpha" maskUnits="userSpaceOnUse" x="0" y="0" width="16" height="17">
<rect y="0.5" width="16" height="16" fill="#D9D9D9"/>
</mask>
<g mask="url(#mask0_337_101)">
<path d="M0.666748 13.8333V11.9667C0.666748 11.5889 0.76397 11.2417 0.958415 10.925C1.15286 10.6083 1.41119 10.3667 1.73341 10.2C2.4223 9.85555 3.1223 9.59722 3.83341 9.425C4.54453 9.25278 5.26675 9.16666 6.00008 9.16666C6.73342 9.16666 7.45564 9.25278 8.16675 9.425C8.87786 9.59722 9.57786 9.85555 10.2667 10.2C10.589 10.3667 10.8473 10.6083 11.0417 10.925C11.2362 11.2417 11.3334 11.5889 11.3334 11.9667V13.8333H0.666748ZM12.6667 13.8333V11.8333C12.6667 11.3444 12.5306 10.875 12.2584 10.425C11.9862 9.975 11.6001 9.58889 11.1001 9.26666C11.6667 9.33333 12.2001 9.44722 12.7001 9.60833C13.2001 9.76944 13.6667 9.96666 14.1001 10.2C14.5001 10.4222 14.8056 10.6694 15.0167 10.9417C15.2279 11.2139 15.3334 11.5111 15.3334 11.8333V13.8333H12.6667ZM6.00008 8.5C5.26675 8.5 4.63897 8.23889 4.11675 7.71666C3.59453 7.19444 3.33341 6.56666 3.33341 5.83333C3.33341 5.1 3.59453 4.47222 4.11675 3.95C4.63897 3.42778 5.26675 3.16666 6.00008 3.16666C6.73342 3.16666 7.36119 3.42778 7.88341 3.95C8.40564 4.47222 8.66675 5.1 8.66675 5.83333C8.66675 6.56666 8.40564 7.19444 7.88341 7.71666C7.36119 8.23889 6.73342 8.5 6.00008 8.5ZM12.6667 5.83333C12.6667 6.56666 12.4056 7.19444 11.8834 7.71666C11.3612 8.23889 10.7334 8.5 10.0001 8.5C9.87786 8.5 9.7223 8.48611 9.53341 8.45833C9.34453 8.43055 9.18897 8.4 9.06675 8.36666C9.36675 8.01111 9.5973 7.61666 9.75842 7.18333C9.91953 6.75 10.0001 6.3 10.0001 5.83333C10.0001 5.36666 9.91953 4.91666 9.75842 4.48333C9.5973 4.05 9.36675 3.65555 9.06675 3.3C9.2223 3.24444 9.37786 3.20833 9.53341 3.19166C9.68897 3.175 9.84453 3.16666 10.0001 3.16666C10.7334 3.16666 11.3612 3.42778 11.8834 3.95C12.4056 4.47222 12.6667 5.1 12.6667 5.83333ZM2.00008 12.5H10.0001V11.9667C10.0001 11.8444 9.96953 11.7333 9.90841 11.6333C9.8473 11.5333 9.76675 11.4556 9.66675 11.4C9.06675 11.1 8.46119 10.875 7.85008 10.725C7.23897 10.575 6.6223 10.5 6.00008 10.5C5.37786 10.5 4.76119 10.575 4.15008 10.725C3.53897 10.875 2.93341 11.1 2.33341 11.4C2.23341 11.4556 2.15286 11.5333 2.09175 11.6333C2.03064 11.7333 2.00008 11.8444 2.00008 11.9667V12.5ZM6.00008 7.16666C6.36675 7.16666 6.68064 7.03611 6.94175 6.775C7.20286 6.51389 7.33342 6.2 7.33342 5.83333C7.33342 5.46666 7.20286 5.15278 6.94175 4.89166C6.68064 4.63055 6.36675 4.5 6.00008 4.5C5.63341 4.5 5.31953 4.63055 5.05841 4.89166C4.7973 5.15278 4.66675 5.46666 4.66675 5.83333C4.66675 6.2 4.7973 6.51389 5.05841 6.775C5.31953 7.03611 5.63341 7.16666 6.00008 7.16666Z" fill="#906A30"/>
</g>
</svg>
