<svg width="16" height="16" viewBox="0 0 16 16" fill="none" xmlns="http://www.w3.org/2000/svg">
<mask id="mask0_337_8" style="mask-type:alpha" maskUnits="userSpaceOnUse" x="0" y="0" width="16" height="16">
<rect width="16" height="16" fill="#D9D9D9"/>
</mask>
<g mask="url(#mask0_337_8)">
<path d="M4.91658 14.0167C4.51659 14.0056 4.13603 13.9028 3.77492 13.7083C3.41381 13.5139 3.07214 13.2278 2.74992 12.85C2.30547 12.3167 1.95825 11.6806 1.70825 10.9417C1.45825 10.2028 1.33325 9.44445 1.33325 8.66667C1.33325 7.74445 1.50825 6.87778 1.85825 6.06667C2.20825 5.25556 2.68325 4.55 3.28325 3.95C3.88325 3.35 4.58881 2.875 5.39992 2.525C6.21103 2.175 7.0777 2 7.99992 2C8.92214 2 9.78881 2.17778 10.5999 2.53333C11.411 2.88889 12.1166 3.37222 12.7166 3.98333C13.3166 4.59444 13.7916 5.31111 14.1416 6.13333C14.4916 6.95556 14.6666 7.83889 14.6666 8.78333C14.6666 9.63889 14.5277 10.4389 14.2499 11.1833C13.9721 11.9278 13.5777 12.5556 13.0666 13.0667C12.7555 13.3778 12.4277 13.6139 12.0833 13.775C11.7388 13.9361 11.3888 14.0167 11.0333 14.0167C10.8333 14.0167 10.6333 13.9917 10.4333 13.9417C10.2333 13.8917 10.0333 13.8167 9.83325 13.7167L8.89992 13.25C8.76658 13.1833 8.62492 13.1333 8.47492 13.1C8.32492 13.0667 8.16658 13.05 7.99992 13.05C7.83325 13.05 7.67492 13.0667 7.52492 13.1C7.37492 13.1333 7.23325 13.1833 7.09992 13.25L6.16658 13.7167C5.95547 13.8278 5.74714 13.9083 5.54158 13.9583C5.33603 14.0083 5.1277 14.0278 4.91658 14.0167ZM4.94992 12.6833C5.04992 12.6833 5.1527 12.6722 5.25825 12.65C5.36381 12.6278 5.46659 12.5889 5.56659 12.5333L6.49992 12.0667C6.73325 11.9444 6.97492 11.8556 7.22492 11.8C7.47492 11.7444 7.7277 11.7167 7.98325 11.7167C8.23881 11.7167 8.49436 11.7444 8.74992 11.8C9.00547 11.8556 9.24992 11.9444 9.48325 12.0667L10.4333 12.5333C10.5333 12.5889 10.6333 12.6278 10.7333 12.65C10.8333 12.6722 10.9333 12.6833 11.0333 12.6833C11.2444 12.6833 11.4444 12.6278 11.6333 12.5167C11.8221 12.4056 12.011 12.2389 12.1999 12.0167C12.5555 11.5944 12.8333 11.0889 13.0333 10.5C13.2333 9.91111 13.3333 9.30556 13.3333 8.68333C13.3333 7.19444 12.8166 5.93056 11.7833 4.89167C10.7499 3.85278 9.48881 3.33333 7.99992 3.33333C6.51103 3.33333 5.24992 3.85556 4.21659 4.9C3.18325 5.94444 2.66659 7.21111 2.66659 8.7C2.66659 9.33333 2.76936 9.95 2.97492 10.55C3.18047 11.15 3.46659 11.6556 3.83325 12.0667C4.02214 12.2889 4.20547 12.4472 4.38325 12.5417C4.56103 12.6361 4.74992 12.6833 4.94992 12.6833ZM7.99992 10C8.36658 10 8.68047 9.86945 8.94159 9.60833C9.2027 9.34722 9.33325 9.03333 9.33325 8.66667C9.33325 8.57778 9.32492 8.48889 9.30825 8.4C9.29158 8.31111 9.26658 8.22222 9.23325 8.13333L10.0666 7.01667C10.1777 7.16111 10.2749 7.31389 10.3583 7.475C10.4416 7.63611 10.511 7.81111 10.5666 8H11.9333C11.7666 7.02222 11.3138 6.22222 10.5749 5.6C9.83603 4.97778 8.9777 4.66667 7.99992 4.66667C7.02214 4.66667 6.16103 4.98056 5.41658 5.60833C4.67214 6.23611 4.22214 7.03333 4.06659 8H5.43325C5.58881 7.4 5.90547 6.91667 6.38325 6.55C6.86103 6.18333 7.39992 6 7.99992 6C8.18881 6 8.36658 6.01667 8.53325 6.05C8.69992 6.08333 8.86103 6.13333 9.01659 6.2L8.16658 7.35C8.14436 7.35 8.11658 7.34722 8.08325 7.34167C8.04992 7.33611 8.02214 7.33333 7.99992 7.33333C7.63325 7.33333 7.31936 7.46389 7.05825 7.725C6.79714 7.98611 6.66658 8.3 6.66658 8.66667C6.66658 9.03333 6.79714 9.34722 7.05825 9.60833C7.31936 9.86945 7.63325 10 7.99992 10Z" fill="#906A30"/>
</g>
</svg>
