<svg width="16" height="17" viewBox="0 0 16 17" fill="none" xmlns="http://www.w3.org/2000/svg">
<mask id="mask0_337_116" style="mask-type:alpha" maskUnits="userSpaceOnUse" x="0" y="0" width="16" height="17">
<rect y="0.5" width="16" height="16" fill="#D9D9D9"/>
</mask>
<g mask="url(#mask0_337_116)">
<path d="M5.33325 9.83333H10.6666V9.46666C10.6666 8.97777 10.4221 8.58333 9.93325 8.28333C9.44436 7.98333 8.79992 7.83333 7.99992 7.83333C7.19992 7.83333 6.55547 7.98333 6.06659 8.28333C5.5777 8.58333 5.33325 8.97777 5.33325 9.46666V9.83333ZM7.99992 7.16666C8.36658 7.16666 8.68047 7.03611 8.94159 6.77499C9.2027 6.51388 9.33325 6.19999 9.33325 5.83333C9.33325 5.46666 9.2027 5.15277 8.94159 4.89166C8.68047 4.63055 8.36658 4.49999 7.99992 4.49999C7.63325 4.49999 7.31936 4.63055 7.05825 4.89166C6.79714 5.15277 6.66658 5.46666 6.66658 5.83333C6.66658 6.19999 6.79714 6.51388 7.05825 6.77499C7.31936 7.03611 7.63325 7.16666 7.99992 7.16666ZM1.33325 15.1667V3.16666C1.33325 2.79999 1.46381 2.48611 1.72492 2.22499C1.98603 1.96388 2.29992 1.83333 2.66659 1.83333H13.3333C13.6999 1.83333 14.0138 1.96388 14.2749 2.22499C14.536 2.48611 14.6666 2.79999 14.6666 3.16666V11.1667C14.6666 11.5333 14.536 11.8472 14.2749 12.1083C14.0138 12.3694 13.6999 12.5 13.3333 12.5H3.99992L1.33325 15.1667ZM3.43325 11.1667H13.3333V3.16666H2.66659V11.9167L3.43325 11.1667Z" fill="#906A30"/>
</g>
</svg>
