<svg width="16" height="17" viewBox="0 0 16 17" fill="none" xmlns="http://www.w3.org/2000/svg">
<mask id="mask0_337_86" style="mask-type:alpha" maskUnits="userSpaceOnUse" x="0" y="0" width="16" height="17">
<rect y="0.5" width="16" height="16" fill="#D9D9D9"/>
</mask>
<g mask="url(#mask0_337_86)">
<path d="M2.66675 13.8333V12.5H4.50008L4.23341 12.2667C3.65564 11.7556 3.25008 11.1722 3.01675 10.5167C2.78341 9.86111 2.66675 9.2 2.66675 8.53333C2.66675 7.3 3.03619 6.20278 3.77508 5.24167C4.51397 4.28056 5.47786 3.64445 6.66675 3.33333V4.73333C5.86675 5.02222 5.2223 5.51389 4.73341 6.20833C4.24453 6.90278 4.00008 7.67778 4.00008 8.53333C4.00008 9.03333 4.09453 9.51945 4.28341 9.99167C4.4723 10.4639 4.76675 10.9 5.16675 11.3L5.33341 11.4667V9.83333H6.66675V13.8333H2.66675ZM9.33342 13.6667V12.2667C10.1334 11.9778 10.7779 11.4861 11.2667 10.7917C11.7556 10.0972 12.0001 9.32222 12.0001 8.46667C12.0001 7.96667 11.9056 7.48056 11.7167 7.00833C11.5279 6.53611 11.2334 6.1 10.8334 5.7L10.6667 5.53333V7.16667H9.33342V3.16667H13.3334V4.5H11.5001L11.7667 4.73333C12.3112 5.27778 12.7084 5.86945 12.9584 6.50833C13.2084 7.14722 13.3334 7.8 13.3334 8.46667C13.3334 9.7 12.964 10.7972 12.2251 11.7583C11.4862 12.7194 10.5223 13.3556 9.33342 13.6667Z" fill="#906A30"/>
</g>
</svg>
