<svg width="16" height="17" viewBox="0 0 16 17" fill="none" xmlns="http://www.w3.org/2000/svg">
<mask id="mask0_337_59" style="mask-type:alpha" maskUnits="userSpaceOnUse" x="0" y="0" width="16" height="17">
<rect y="0.5" width="16" height="16" fill="#D9D9D9"/>
</mask>
<g mask="url(#mask0_337_59)">
<path d="M12 7.83334C11.0778 7.83334 10.2917 7.50834 9.64167 6.85834C8.99167 6.20834 8.66667 5.42223 8.66667 4.50001C8.66667 3.58889 8.98889 2.80556 9.63333 2.15001C10.2778 1.49445 11.0667 1.16667 12 1.16667C12.9222 1.16667 13.7083 1.49167 14.3583 2.14167C15.0083 2.79167 15.3333 3.57778 15.3333 4.50001C15.3333 5.42223 15.0083 6.20834 14.3583 6.85834C13.7083 7.50834 12.9222 7.83334 12 7.83334ZM11.6667 5.16667H12.3333V2.50001H11.6667V5.16667ZM2.66667 13.8333C2.47778 13.8333 2.31944 13.7694 2.19167 13.6417C2.06389 13.5139 2 13.3556 2 13.1667V7.83334L3.4 3.83334C3.46667 3.63334 3.58611 3.47223 3.75833 3.35001C3.93056 3.22778 4.12222 3.16667 4.33333 3.16667H7.53333C7.46667 3.37778 7.41667 3.59445 7.38333 3.81667C7.35 4.03889 7.33333 4.26667 7.33333 4.50001H4.56667L3.86667 6.50001H7.78333C7.90556 6.75556 8.04722 6.99445 8.20833 7.21667C8.36944 7.43889 8.55 7.64445 8.75 7.83334H3.33333V11.1667H12.6667V9.11667C12.9 9.08334 13.1278 9.03334 13.35 8.96667C13.5722 8.90001 13.7889 8.81667 14 8.71667V13.1667C14 13.3556 13.9361 13.5139 13.8083 13.6417C13.6806 13.7694 13.5222 13.8333 13.3333 13.8333H12.6667C12.4778 13.8333 12.3194 13.7694 12.1917 13.6417C12.0639 13.5139 12 13.3556 12 13.1667V12.5H4V13.1667C4 13.3556 3.93611 13.5139 3.80833 13.6417C3.68056 13.7694 3.52222 13.8333 3.33333 13.8333H2.66667ZM12 6.50001C12.0889 6.50001 12.1667 6.46667 12.2333 6.40001C12.3 6.33334 12.3333 6.25556 12.3333 6.16667C12.3333 6.07778 12.3 6.00001 12.2333 5.93334C12.1667 5.86667 12.0889 5.83334 12 5.83334C11.9111 5.83334 11.8333 5.86667 11.7667 5.93334C11.7 6.00001 11.6667 6.07778 11.6667 6.16667C11.6667 6.25556 11.7 6.33334 11.7667 6.40001C11.8333 6.46667 11.9111 6.50001 12 6.50001ZM5 10.5C5.27778 10.5 5.51389 10.4028 5.70833 10.2083C5.90278 10.0139 6 9.77778 6 9.50001C6 9.22223 5.90278 8.98612 5.70833 8.79167C5.51389 8.59723 5.27778 8.50001 5 8.50001C4.72222 8.50001 4.48611 8.59723 4.29167 8.79167C4.09722 8.98612 4 9.22223 4 9.50001C4 9.77778 4.09722 10.0139 4.29167 10.2083C4.48611 10.4028 4.72222 10.5 5 10.5ZM11 10.5C11.2778 10.5 11.5139 10.4028 11.7083 10.2083C11.9028 10.0139 12 9.77778 12 9.50001C12 9.44445 11.9972 9.38889 11.9917 9.33334C11.9861 9.27778 11.9722 9.22223 11.95 9.16667C11.65 9.16667 11.3583 9.13889 11.075 9.08334C10.7917 9.02778 10.5222 8.94445 10.2667 8.83334C10.1778 8.92223 10.1111 9.02501 10.0667 9.14167C10.0222 9.25834 10 9.37778 10 9.50001C10 9.77778 10.0972 10.0139 10.2917 10.2083C10.4861 10.4028 10.7222 10.5 11 10.5Z" fill="#906A30"/>
</g>
</svg>
