<svg width="16" height="17" viewBox="0 0 16 17" fill="none" xmlns="http://www.w3.org/2000/svg">
<mask id="mask0_337_68" style="mask-type:alpha" maskUnits="userSpaceOnUse" x="0" y="0" width="16" height="17">
<rect y="0.5" width="16" height="16" fill="#D9D9D9"/>
</mask>
<g mask="url(#mask0_337_68)">
<path d="M9.49992 14.7667C9.24436 15.0222 8.9277 15.15 8.54992 15.15C8.17214 15.15 7.85547 15.0222 7.59992 14.7667L1.73325 8.89999C1.61103 8.77777 1.51381 8.63333 1.44159 8.46666C1.36936 8.29999 1.33325 8.12222 1.33325 7.93333V3.16666C1.33325 2.79999 1.46381 2.48611 1.72492 2.22499C1.98603 1.96388 2.29992 1.83333 2.66659 1.83333H7.43325C7.62214 1.83333 7.79992 1.86944 7.96658 1.94166C8.13325 2.01388 8.2777 2.11111 8.39992 2.23333L14.2666 8.11666C14.5221 8.37222 14.6499 8.68611 14.6499 9.05833C14.6499 9.43055 14.5221 9.74444 14.2666 9.99999L9.49992 14.7667ZM8.54992 13.8333L13.3166 9.06666L7.43325 3.16666H2.66659V7.93333L8.54992 13.8333ZM4.33325 5.83333C4.61103 5.83333 4.84714 5.73611 5.04158 5.54166C5.23603 5.34722 5.33325 5.11111 5.33325 4.83333C5.33325 4.55555 5.23603 4.31944 5.04158 4.12499C4.84714 3.93055 4.61103 3.83333 4.33325 3.83333C4.05547 3.83333 3.81936 3.93055 3.62492 4.12499C3.43047 4.31944 3.33325 4.55555 3.33325 4.83333C3.33325 5.11111 3.43047 5.34722 3.62492 5.54166C3.81936 5.73611 4.05547 5.83333 4.33325 5.83333Z" fill="#906A30"/>
</g>
</svg>
