<svg width="16" height="17" viewBox="0 0 16 17" fill="none" xmlns="http://www.w3.org/2000/svg">
<mask id="mask0_337_80" style="mask-type:alpha" maskUnits="userSpaceOnUse" x="0" y="0" width="16" height="17">
<rect y="0.5" width="16" height="16" fill="#D9D9D9"/>
</mask>
<g mask="url(#mask0_337_80)">
<path d="M7.99992 15.1667C7.0777 15.1667 6.21103 14.9917 5.39992 14.6417C4.58881 14.2917 3.88325 13.8167 3.28325 13.2167C2.68325 12.6167 2.20825 11.9111 1.85825 11.1C1.50825 10.2889 1.33325 9.42222 1.33325 8.5C1.33325 7.57778 1.50825 6.71111 1.85825 5.9C2.20825 5.08889 2.68325 4.38334 3.28325 3.78334C3.88325 3.18334 4.58881 2.70834 5.39992 2.35834C6.21103 2.00834 7.0777 1.83334 7.99992 1.83334C8.92214 1.83334 9.78881 2.00834 10.5999 2.35834C11.411 2.70834 12.1166 3.18334 12.7166 3.78334C13.3166 4.38334 13.7916 5.08889 14.1416 5.9C14.4916 6.71111 14.6666 7.57778 14.6666 8.5C14.6666 9.42222 14.4916 10.2889 14.1416 11.1C13.7916 11.9111 13.3166 12.6167 12.7166 13.2167C12.1166 13.8167 11.411 14.2917 10.5999 14.6417C9.78881 14.9917 8.92214 15.1667 7.99992 15.1667ZM7.33325 13.7667V11.7667C6.66658 11.6333 6.09992 11.3333 5.63325 10.8667C5.16659 10.4 4.86659 9.83334 4.73325 9.16667H2.73325C2.86659 10.3778 3.36381 11.4056 4.22492 12.25C5.08603 13.0944 6.12214 13.6 7.33325 13.7667ZM8.66658 13.7667C9.8777 13.6333 10.9138 13.1361 11.7749 12.275C12.636 11.4139 13.1333 10.3778 13.2666 9.16667H11.2666C11.1333 9.83334 10.8333 10.4 10.3666 10.8667C9.89992 11.3333 9.33325 11.6333 8.66658 11.7667V13.7667ZM2.73325 7.83334H4.66658L6.66658 5.83334H9.33325L11.3333 7.83334H13.2666C13.0999 6.48889 12.5166 5.375 11.5166 4.49167C10.5166 3.60834 9.34436 3.16667 7.99992 3.16667C6.65547 3.16667 5.48325 3.60834 4.48325 4.49167C3.48325 5.375 2.89992 6.48889 2.73325 7.83334Z" fill="#906A30"/>
</g>
</svg>
