<svg width="16" height="17" viewBox="0 0 16 17" fill="none" xmlns="http://www.w3.org/2000/svg">
<mask id="mask0_337_92" style="mask-type:alpha" maskUnits="userSpaceOnUse" x="0" y="0" width="16" height="17">
<rect y="0.5" width="16" height="16" fill="#D9D9D9"/>
</mask>
<g mask="url(#mask0_337_92)">
<path d="M4 15.1667C3.44444 15.1667 2.97222 14.9722 2.58333 14.5833C2.19444 14.1944 2 13.7222 2 13.1667V11.1667H4V1.83333H14V13.1667C14 13.7222 13.8056 14.1944 13.4167 14.5833C13.0278 14.9722 12.5556 15.1667 12 15.1667H4ZM12 13.8333C12.1889 13.8333 12.3472 13.7694 12.475 13.6417C12.6028 13.5139 12.6667 13.3556 12.6667 13.1667V3.16667H5.33333V11.1667H11.3333V13.1667C11.3333 13.3556 11.3972 13.5139 11.525 13.6417C11.6528 13.7694 11.8111 13.8333 12 13.8333ZM6 6.5V5.16667H12V6.5H6ZM6 8.5V7.16667H12V8.5H6ZM4 13.8333H10V12.5H3.33333V13.1667C3.33333 13.3556 3.39722 13.5139 3.525 13.6417C3.65278 13.7694 3.81111 13.8333 4 13.8333ZM4 13.8333H3.33333H10H4Z" fill="#906A30"/>
</g>
</svg>
