<svg width="16" height="16" viewBox="0 0 16 16" fill="none" xmlns="http://www.w3.org/2000/svg">
<path fill-rule="evenodd" clip-rule="evenodd" d="M13.5946 4.67568C13.5946 6.15341 12.3966 7.35136 10.9189 7.35136C9.44117 7.35136 8.24323 6.15341 8.24323 4.67568C8.24323 3.19794 9.44117 2 10.9189 2C12.3966 2 13.5946 3.19794 13.5946 4.67568ZM11.3649 2.89189H10.473V4.22973H9.13514L9.13514 5.12162H10.473V6.45946H11.3649V5.12162H12.7027V4.22973H11.3649V2.89189ZM2.5946 13C2.42613 13 2.28491 12.943 2.17095 12.8291C2.05698 12.7151 2 12.5739 2 12.4054V7.64865L3.24865 4.08108C3.30811 3.9027 3.41464 3.759 3.56824 3.64999C3.72185 3.54099 3.89279 3.48648 4.08108 3.48648H6.93514C6.87568 3.67477 6.83108 3.86801 6.80135 4.06621C6.77163 4.26441 6.75676 4.46756 6.75676 4.67567H4.28919L3.66487 6.45946H7.15811C7.26712 6.68738 7.39347 6.90045 7.53717 7.09865C7.68086 7.29684 7.8419 7.48018 8.02028 7.64865H3.18919V10.6216H11.5135V8.79324C11.7216 8.76351 11.9248 8.71892 12.123 8.65946C12.3212 8.6 12.5144 8.52567 12.7027 8.43649V12.4054C12.7027 12.5739 12.6457 12.7151 12.5318 12.8291C12.4178 12.943 12.2766 13 12.1081 13H11.5135C11.3451 13 11.2038 12.943 11.0899 12.8291C10.9759 12.7151 10.9189 12.5739 10.9189 12.4054V11.8108H3.78379V12.4054C3.78379 12.5739 3.7268 12.7151 3.61284 12.8291C3.49888 12.943 3.35766 13 3.18919 13H2.5946ZM4.67568 10.027C4.92343 10.027 5.13401 9.94032 5.30744 9.76689C5.48086 9.59347 5.56757 9.38288 5.56757 9.13513C5.56757 8.88739 5.48086 8.6768 5.30744 8.50338C5.13401 8.32995 4.92343 8.24324 4.67568 8.24324C4.42793 8.24324 4.21734 8.32995 4.04392 8.50338C3.8705 8.6768 3.78379 8.88739 3.78379 9.13513C3.78379 9.38288 3.8705 9.59347 4.04392 9.76689C4.21734 9.94032 4.42793 10.027 4.67568 10.027ZM10.027 10.027C10.2748 10.027 10.4854 9.94032 10.6588 9.76689C10.8322 9.59347 10.9189 9.38288 10.9189 9.13513C10.9189 9.08558 10.9164 9.03603 10.9115 8.98649C10.9065 8.93694 10.8942 8.88739 10.8743 8.83784C10.6068 8.83784 10.3466 8.81306 10.0939 8.76351C9.84122 8.71396 9.60091 8.63964 9.37298 8.54054C9.2937 8.61982 9.23424 8.71148 9.1946 8.81554C9.15496 8.91959 9.13514 9.02612 9.13514 9.13513C9.13514 9.38288 9.22185 9.59347 9.39528 9.76689C9.5687 9.94032 9.77929 10.027 10.027 10.027Z" fill="#906A30"/>
</svg>
