<svg width="16" height="16" viewBox="0 0 16 16" fill="none" xmlns="http://www.w3.org/2000/svg">
<path fill-rule="evenodd" clip-rule="evenodd" d="M11.4318 9.15909C11.1136 9.47727 10.7272 9.63636 10.2727 9.63636C9.81815 9.63636 9.43179 9.47727 9.11361 9.15909C8.79543 8.84091 8.63634 8.45455 8.63634 8H7.54543C7.24543 8 6.98861 7.89318 6.77497 7.67955C6.56134 7.46591 6.45452 7.20909 6.45452 6.90909V5.81818C6.45452 5.51818 6.56134 5.26136 6.77497 5.04773C6.98861 4.83409 7.24543 4.72727 7.54543 4.72727H8.63634L10.2727 2H14.0909V3.09091H13V4.72727H14.0909V5.81818H7.54543V6.90909H9.05906C9.2227 6.72727 9.40906 6.59091 9.61815 6.5C9.82724 6.40909 10.0454 6.36364 10.2727 6.36364C10.5272 6.36364 10.7591 6.42045 10.9682 6.53409C11.1772 6.64773 11.35 6.77273 11.4863 6.90909H14.0909V8H11.9091C11.9091 8.45455 11.75 8.84091 11.4318 9.15909ZM9.90452 4.72727H11.9091V3.09091H10.8863L9.90452 4.72727ZM9.88406 8.38864C9.98861 8.49318 10.1182 8.54545 10.2727 8.54545C10.4272 8.54545 10.5568 8.49318 10.6613 8.38864C10.7659 8.28409 10.8182 8.15455 10.8182 8C10.8182 7.84545 10.7659 7.71591 10.6613 7.61136C10.5568 7.50682 10.4272 7.45455 10.2727 7.45455C10.1182 7.45455 9.98861 7.50682 9.88406 7.61136C9.77952 7.71591 9.72725 7.84545 9.72725 8C9.72725 8.15455 9.77952 8.28409 9.88406 8.38864ZM3.65909 13.5227C3.97727 13.8409 4.36364 14 4.81818 14C5.27273 14 5.65909 13.8409 5.97727 13.5227C6.29545 13.2046 6.45455 12.8182 6.45455 12.3636H7.54545C7.84545 12.3636 8.10227 12.2568 8.31591 12.0432C8.52955 11.8296 8.63636 11.5727 8.63636 11.2727V10.1818C8.63636 9.88183 8.52955 9.62501 8.31591 9.41138C8.10227 9.19774 7.84545 9.09092 7.54545 9.09092H6.45455L4.81818 6.36365H1V7.45456H2.09091V9.09092H1V10.1818H7.54545V11.2727H6.03182C5.86818 11.0909 5.68182 10.9546 5.47273 10.8636C5.26364 10.7727 5.04545 10.7273 4.81818 10.7273C4.56364 10.7273 4.33182 10.7841 4.12273 10.8977C3.91364 11.0114 3.74091 11.1364 3.60455 11.2727H1V12.3636H3.18182C3.18182 12.8182 3.34091 13.2046 3.65909 13.5227ZM5.18636 9.09092H3.18182V7.45456H4.20455L5.18636 9.09092ZM5.20682 12.7523C5.10227 12.8568 4.97273 12.9091 4.81818 12.9091C4.66364 12.9091 4.53409 12.8568 4.42955 12.7523C4.325 12.6477 4.27273 12.5182 4.27273 12.3636C4.27273 12.2091 4.325 12.0796 4.42955 11.975C4.53409 11.8705 4.66364 11.8182 4.81818 11.8182C4.97273 11.8182 5.10227 11.8705 5.20682 11.975C5.31136 12.0796 5.36364 12.2091 5.36364 12.3636C5.36364 12.5182 5.31136 12.6477 5.20682 12.7523Z" fill="#906A30"/>
</svg>
