<svg width="16" height="17" viewBox="0 0 16 17" fill="none" xmlns="http://www.w3.org/2000/svg">
<path fill-rule="evenodd" clip-rule="evenodd" d="M2.17095 13.5791C2.28491 13.693 2.42613 13.75 2.5946 13.75H3.18919C3.35766 13.75 3.49888 13.693 3.61284 13.5791C3.7268 13.4651 3.78379 13.3239 3.78379 13.1554V12.5608H10.9189V13.1554C10.9189 13.3239 10.9759 13.4651 11.0899 13.5791C11.2038 13.693 11.3451 13.75 11.5135 13.75H12.1081C12.2766 13.75 12.4178 13.693 12.5318 13.5791C12.6457 13.4651 12.7027 13.3239 12.7027 13.1554V9.18649C12.5144 9.27567 12.3212 9.35 12.123 9.40946C11.9248 9.46892 11.7216 9.51351 11.5135 9.54324V11.3716H3.18919V8.39865H8.02028C7.8419 8.23018 7.68086 8.04684 7.53717 7.84865C7.39347 7.65045 7.26712 7.43738 7.15811 7.20946H3.66487L4.28919 5.42567H6.75676C6.75676 5.21756 6.77163 5.01441 6.80135 4.81621C6.83108 4.61801 6.87568 4.42477 6.93514 4.23648H4.08108C3.89279 4.23648 3.72185 4.29099 3.56824 4.39999C3.41464 4.509 3.30811 4.6527 3.24865 4.83108L2 8.39865V13.1554C2 13.3239 2.05698 13.4651 2.17095 13.5791ZM5.30744 10.5169C5.13401 10.6903 4.92343 10.777 4.67568 10.777C4.42793 10.777 4.21734 10.6903 4.04392 10.5169C3.8705 10.3435 3.78379 10.1329 3.78379 9.88513C3.78379 9.63739 3.8705 9.4268 4.04392 9.25338C4.21734 9.07995 4.42793 8.99324 4.67568 8.99324C4.92343 8.99324 5.13401 9.07995 5.30744 9.25338C5.48086 9.4268 5.56757 9.63739 5.56757 9.88513C5.56757 10.1329 5.48086 10.3435 5.30744 10.5169ZM10.6588 10.5169C10.4854 10.6903 10.2748 10.777 10.027 10.777C9.77929 10.777 9.5687 10.6903 9.39528 10.5169C9.22185 10.3435 9.13514 10.1329 9.13514 9.88513C9.13514 9.77612 9.15496 9.66959 9.1946 9.56554C9.23424 9.46148 9.2937 9.36982 9.37298 9.29054C9.60091 9.38964 9.84122 9.46396 10.0939 9.51351C10.3466 9.56306 10.6068 9.58784 10.8743 9.58784C10.8942 9.63739 10.9065 9.68694 10.9115 9.73649C10.9164 9.78603 10.9189 9.83558 10.9189 9.88513C10.9189 10.1329 10.8322 10.3435 10.6588 10.5169Z" fill="#906A30"/>
<path d="M10.0597 8.1L9.89925 7.2975C9.79225 7.25292 9.69194 7.2061 9.59831 7.15706C9.50469 7.10802 9.40883 7.04783 9.31075 6.9765L8.535 7.21725L8 6.30775L8.61525 5.77275C8.59742 5.65683 8.5885 5.54092 8.5885 5.425C8.5885 5.30908 8.59742 5.19317 8.61525 5.07725L8 4.54225L8.535 3.63275L9.31075 3.8735C9.40883 3.80217 9.50469 3.74198 9.59831 3.69294C9.69194 3.6439 9.79225 3.59708 9.89925 3.5525L10.0597 2.75H11.1297L11.2902 3.5525C11.3972 3.59708 11.4976 3.6439 11.5912 3.69294C11.6848 3.74198 11.7807 3.80217 11.8787 3.8735L12.6545 3.63275L13.1895 4.54225L12.5742 5.07725C12.5921 5.19317 12.601 5.30908 12.601 5.425C12.601 5.54092 12.5921 5.65683 12.5742 5.77275L13.1895 6.30775L12.6545 7.21725L11.8787 6.9765C11.7807 7.04783 11.6848 7.10802 11.5912 7.15706C11.4976 7.2061 11.3972 7.25292 11.2902 7.2975L11.1297 8.1H10.0597ZM10.5947 6.495C10.889 6.495 11.1409 6.39023 11.3504 6.18069C11.56 5.97115 11.6647 5.71925 11.6647 5.425C11.6647 5.13075 11.56 4.87885 11.3504 4.66931C11.1409 4.45977 10.889 4.355 10.5947 4.355C10.3005 4.355 10.0486 4.45977 9.83906 4.66931C9.62952 4.87885 9.52475 5.13075 9.52475 5.425C9.52475 5.71925 9.62952 5.97115 9.83906 6.18069C10.0486 6.39023 10.3005 6.495 10.5947 6.495Z" fill="#906A30"/>
</svg>
