<svg width="16" height="17" viewBox="0 0 16 17" fill="none" xmlns="http://www.w3.org/2000/svg">
<mask id="mask0_337_53" style="mask-type:alpha" maskUnits="userSpaceOnUse" x="0" y="0" width="16" height="17">
<rect y="0.5" width="16" height="16" fill="#D9D9D9"/>
</mask>
<g mask="url(#mask0_337_53)">
<path d="M8 4.73333L6.11667 2.86667L7.05 1.91667L8 2.86667L10.3667 0.5L11.3 1.43333L8 4.73333ZM2.66667 16.5C2.47778 16.5 2.31944 16.4361 2.19167 16.3083C2.06389 16.1806 2 16.0222 2 15.8333V10.5L3.4 6.5C3.46667 6.3 3.58611 6.13889 3.75833 6.01667C3.93056 5.89444 4.12222 5.83333 4.33333 5.83333H11.6667C11.8778 5.83333 12.0694 5.89444 12.2417 6.01667C12.4139 6.13889 12.5333 6.3 12.6 6.5L14 10.5V15.8333C14 16.0222 13.9361 16.1806 13.8083 16.3083C13.6806 16.4361 13.5222 16.5 13.3333 16.5H12.6667C12.4778 16.5 12.3194 16.4361 12.1917 16.3083C12.0639 16.1806 12 16.0222 12 15.8333V15.1667H4V15.8333C4 16.0222 3.93611 16.1806 3.80833 16.3083C3.68056 16.4361 3.52222 16.5 3.33333 16.5H2.66667ZM3.86667 9.16667H12.1333L11.4333 7.16667H4.56667L3.86667 9.16667ZM5 13.1667C5.27778 13.1667 5.51389 13.0694 5.70833 12.875C5.90278 12.6806 6 12.4444 6 12.1667C6 11.8889 5.90278 11.6528 5.70833 11.4583C5.51389 11.2639 5.27778 11.1667 5 11.1667C4.72222 11.1667 4.48611 11.2639 4.29167 11.4583C4.09722 11.6528 4 11.8889 4 12.1667C4 12.4444 4.09722 12.6806 4.29167 12.875C4.48611 13.0694 4.72222 13.1667 5 13.1667ZM11 13.1667C11.2778 13.1667 11.5139 13.0694 11.7083 12.875C11.9028 12.6806 12 12.4444 12 12.1667C12 11.8889 11.9028 11.6528 11.7083 11.4583C11.5139 11.2639 11.2778 11.1667 11 11.1667C10.7222 11.1667 10.4861 11.2639 10.2917 11.4583C10.0972 11.6528 10 11.8889 10 12.1667C10 12.4444 10.0972 12.6806 10.2917 12.875C10.4861 13.0694 10.7222 13.1667 11 13.1667ZM3.33333 13.8333H12.6667V10.5H3.33333V13.8333Z" fill="#906A30"/>
</g>
</svg>
