<svg width="12" height="11" viewBox="0 0 12 11" fill="none" xmlns="http://www.w3.org/2000/svg">
<path d="M2.0612 9.58333H2.89245L8.59453 3.88125L7.76328 3.05L2.0612 8.75208V9.58333ZM0.894531 10.75V8.27083L8.59453 0.585417C8.7112 0.478472 8.84002 0.395833 8.98099 0.3375C9.12196 0.279167 9.27023 0.25 9.42578 0.25C9.58134 0.25 9.73203 0.279167 9.87786 0.3375C10.0237 0.395833 10.1501 0.483333 10.257 0.6L11.0591 1.41667C11.1758 1.52361 11.2609 1.65 11.3143 1.79583C11.3678 1.94167 11.3945 2.0875 11.3945 2.23333C11.3945 2.38889 11.3678 2.53715 11.3143 2.67812C11.2609 2.8191 11.1758 2.94792 11.0591 3.06458L3.3737 10.75H0.894531ZM8.17161 3.47292L7.76328 3.05L8.59453 3.88125L8.17161 3.47292Z" fill="#D3B478"/>
</svg>
