<svg width="27.450195" height="27.450195" viewBox="0 0 27.4502 27.4502" fill="none" xmlns="http://www.w3.org/2000/svg" xmlns:xlink="http://www.w3.org/1999/xlink">
	<desc>
			Created with Pixso.
	</desc>
	<defs/>
	<mask id="mask219_30" mask-type="alpha" maskUnits="userSpaceOnUse" x="0.000000" y="0.000000" width="27.450195" height="27.450195">
		<rect id="Bounding box" width="27.450195" height="27.450195" fill="#D9D9D9" fill-opacity="1.000000"/>
	</mask>
	<g mask="url(#mask219_30)">
		<path id="sync" d="M4.57495 22.8752L4.57495 20.5879L7.72034 20.5879L7.26282 20.1875C6.27148 19.3105 5.57568 18.3098 5.17542 17.1851C4.77515 16.0605 4.57495 14.9263 4.57495 13.7825C4.57495 11.6665 5.20874 9.78418 6.47644 8.13525C7.74414 6.48633 9.39783 5.39478 11.4375 4.86108L11.4375 7.26294C10.0649 7.75854 8.95935 8.60229 8.12061 9.7937C7.28186 10.9851 6.86243 12.3147 6.86243 13.7825C6.86243 14.6404 7.02454 15.4744 7.34851 16.2844C7.67261 17.0945 8.17773 17.8428 8.86401 18.5291L9.15002 18.8149L9.15002 16.0127L11.4375 16.0127L11.4375 22.8752L4.57495 22.8752ZM16.0126 22.5894L16.0126 20.1875C17.385 19.6919 18.4907 18.8484 19.3295 17.657C20.1682 16.4656 20.5875 15.136 20.5875 13.668C20.5875 12.8103 20.4255 11.9763 20.1014 11.166C19.7773 10.356 19.2722 9.60767 18.5859 8.92139L18.3 8.6355L18.3 11.4377L16.0126 11.4377L16.0126 4.5752L22.8751 4.5752L22.8751 6.86279L19.7297 6.86279L20.1873 7.26294C21.1213 8.19702 21.8029 9.21216 22.2317 10.3083C22.6606 11.4043 22.8751 12.5244 22.8751 13.668C22.8751 15.7839 22.2412 17.6665 20.9736 19.3154C19.7059 20.9644 18.0522 22.0557 16.0126 22.5894Z" fill="#906A30" fill-opacity="1.000000" fill-rule="nonzero"/>
	</g>
</svg>
