<svg width="27" height="26" viewBox="0 0 27 26" fill="none" xmlns="http://www.w3.org/2000/svg">
<path d="M1.63965 22.7499H5.97298V9.74992H1.63965V22.7499ZM25.473 10.8333C25.473 9.64158 24.498 8.66658 23.3063 8.66658H16.4705L17.4996 3.71575L17.5321 3.36909C17.5321 2.92492 17.348 2.51325 17.0555 2.22075L15.9071 1.08325L8.77882 8.22242C8.37798 8.61242 8.13965 9.15408 8.13965 9.74992V20.5833C8.13965 21.7749 9.11465 22.7499 10.3063 22.7499H20.0563C20.9555 22.7499 21.7246 22.2083 22.0497 21.4283L25.3213 13.7908C25.4188 13.5416 25.473 13.2816 25.473 12.9999V10.9308L25.4621 10.9199L25.473 10.8333Z" fill="#34C970"/>
</svg>
