<svg width="18" height="13" viewBox="0 0 18 13" fill="none" xmlns="http://www.w3.org/2000/svg">
<path d="M9.10384 10.1971C10.0934 10.1971 10.9346 9.85078 11.6273 9.15807C12.32 8.46537 12.6663 7.62422 12.6663 6.63464C12.6663 5.64505 12.32 4.80391 11.6273 4.1112C10.9346 3.41849 10.0934 3.07214 9.10384 3.07214C8.11426 3.07214 7.27311 3.41849 6.5804 4.1112C5.88769 4.80391 5.54134 5.64505 5.54134 6.63464C5.54134 7.62422 5.88769 8.46537 6.5804 9.15807C7.27311 9.85078 8.11426 10.1971 9.10384 10.1971ZM9.10384 8.77214C8.51009 8.77214 8.0054 8.56432 7.58978 8.1487C7.17415 7.73307 6.96634 7.22839 6.96634 6.63464C6.96634 6.04089 7.17415 5.5362 7.58978 5.12057C8.0054 4.70495 8.51009 4.49714 9.10384 4.49714C9.69759 4.49714 10.2023 4.70495 10.6179 5.12057C11.0335 5.5362 11.2413 6.04089 11.2413 6.63464C11.2413 7.22839 11.0335 7.73307 10.6179 8.1487C10.2023 8.56432 9.69759 8.77214 9.10384 8.77214ZM9.10384 12.5721C7.17745 12.5721 5.42259 12.0345 3.83926 10.9591C2.25592 9.88377 1.10801 8.44228 0.395508 6.63464C1.10801 4.827 2.25592 3.3855 3.83926 2.31016C5.42259 1.23481 7.17745 0.697136 9.10384 0.697136C11.0302 0.697136 12.7851 1.23481 14.3684 2.31016C15.9518 3.3855 17.0997 4.827 17.8122 6.63464C17.0997 8.44228 15.9518 9.88377 14.3684 10.9591C12.7851 12.0345 11.0302 12.5721 9.10384 12.5721ZM9.10384 10.9888C10.5948 10.9888 11.9637 10.5963 13.2106 9.8112C14.4575 9.02613 15.4108 7.96728 16.0705 6.63464C15.4108 5.302 14.4575 4.24314 13.2106 3.45807C11.9637 2.673 10.5948 2.28047 9.10384 2.28047C7.61287 2.28047 6.24395 2.673 4.99707 3.45807C3.7502 4.24314 2.7969 5.302 2.13717 6.63464C2.7969 7.96728 3.7502 9.02613 4.99707 9.8112C6.24395 10.5963 7.61287 10.9888 9.10384 10.9888Z" fill="#B49758"/>
</svg>
