<svg width="18" height="15" viewBox="0 0 18 15" fill="none" xmlns="http://www.w3.org/2000/svg">
<path d="M11.974 7.90157L10.8829 6.8104C10.9958 6.22092 10.8264 5.66906 10.3749 5.15483C9.9234 4.6406 9.34019 4.43993 8.62529 4.55281L7.53412 3.46164C7.74733 3.3613 7.96369 3.28605 8.18317 3.23588C8.40266 3.18571 8.63783 3.16063 8.88867 3.16063C9.82933 3.16063 10.6289 3.48986 11.2874 4.14832C11.9458 4.80679 12.2751 5.60635 12.2751 6.54701C12.2751 6.79786 12.25 7.03302 12.1998 7.25251C12.1496 7.472 12.0744 7.68835 11.974 7.90157ZM14.3821 10.272L13.291 9.2185C13.7676 8.85477 14.1909 8.45656 14.5609 8.02385C14.9309 7.59115 15.2476 7.09887 15.5109 6.54701C14.8838 5.28025 13.9839 4.27375 12.8112 3.52749C11.6385 2.78123 10.331 2.4081 8.88867 2.4081C8.52495 2.4081 8.1675 2.43318 7.81632 2.48335C7.46514 2.53352 7.12023 2.60877 6.78159 2.70911L5.61517 1.54269C6.12939 1.32947 6.65617 1.16956 7.19548 1.06295C7.73479 0.956341 8.29919 0.903036 8.88867 0.903036C10.7825 0.903036 12.4695 1.42667 13.9494 2.47394C15.4294 3.52121 16.5018 4.8789 17.1665 6.54701C16.878 7.287 16.4986 7.97369 16.0283 8.60707C15.558 9.24045 15.0093 9.79544 14.3821 10.272ZM14.7584 14.9001L11.5978 11.7771C11.1588 11.9151 10.7167 12.0185 10.2714 12.0875C9.8262 12.1565 9.36527 12.191 8.88867 12.191C6.9948 12.191 5.30788 11.6674 3.82791 10.6201C2.34793 9.57281 1.27557 8.21512 0.61084 6.54701C0.874225 5.88228 1.20659 5.26458 1.60794 4.69391C2.00929 4.12324 2.46708 3.61215 2.98131 3.16063L0.911852 1.05354L1.96539 0L15.8119 13.8466L14.7584 14.9001ZM4.03485 4.21417C3.67113 4.54027 3.33876 4.89772 3.03775 5.28653C2.73674 5.67533 2.47962 6.0955 2.26641 6.54701C2.89351 7.81377 3.79342 8.82028 4.96611 9.56654C6.1388 10.3128 7.44632 10.6859 8.88867 10.6859C9.13951 10.6859 9.38409 10.6703 9.62239 10.6389C9.86069 10.6075 10.1053 10.5731 10.3561 10.5354L9.67883 9.82052C9.54086 9.85815 9.40917 9.88637 9.28375 9.90518C9.15833 9.92399 9.02664 9.9334 8.88867 9.9334C7.94801 9.9334 7.14845 9.60417 6.48998 8.9457C5.83152 8.28724 5.50229 7.48768 5.50229 6.54701C5.50229 6.40905 5.51169 6.27736 5.53051 6.15194C5.54932 6.02651 5.57754 5.89482 5.61517 5.75686L4.03485 4.21417Z" fill="white"/>
</svg>
