<svg width="27" height="20" viewBox="0 0 27 20" fill="none" xmlns="http://www.w3.org/2000/svg">
<path fill-rule="evenodd" clip-rule="evenodd" d="M13.555 0.675049C14.1509 0.675201 14.7368 0.804687 15.2566 1.05112C15.7764 1.29755 16.2127 1.65269 16.5239 2.08255L26.0789 15.5088C26.3098 15.8404 26.4609 16.2073 26.5237 16.5885C26.5864 16.9696 26.5594 17.3575 26.4444 17.7298C26.3293 18.1022 26.1284 18.4516 25.8532 18.758C25.5779 19.0645 25.2338 19.3219 24.8406 19.5155C24.3174 19.7739 23.7243 19.9127 23.1181 19.9182H3.99188C3.38625 19.9126 2.79281 19.7735 2.27016 19.5146C1.74751 19.2557 1.31372 18.886 1.01163 18.442C0.710499 17.9974 0.552881 17.4936 0.554592 16.9812C0.556305 16.4687 0.717283 15.9657 1.02138 15.5225L10.5829 2.08805C10.8942 1.65731 11.3309 1.30127 11.8512 1.0539C12.3715 0.806529 12.9581 0.676096 13.555 0.675049ZM15.18 14.4202C15.18 14.0556 15.0088 13.706 14.7041 13.4482C14.3993 13.1905 13.986 13.0457 13.555 13.0457H13.5436C13.1127 13.0457 12.6993 13.1905 12.3946 13.4482C12.0898 13.706 11.9186 14.0556 11.9186 14.4202C11.9186 14.7847 12.0898 15.1343 12.3946 15.3921C12.6993 15.6499 13.1127 15.7947 13.5436 15.7947H13.555C13.986 15.7947 14.3993 15.6499 14.7041 15.3921C15.0088 15.1343 15.18 14.7847 15.18 14.4202ZM12.3363 7.20398C12.3363 6.93057 12.4647 6.66837 12.6932 6.47504C12.9218 6.28171 13.2318 6.1731 13.555 6.1731C13.8782 6.1731 14.1882 6.28171 14.4168 6.47504C14.6454 6.66837 14.7738 6.93057 14.7738 7.20398V10.6403C14.7738 10.9137 14.6454 11.1759 14.4168 11.3692C14.1882 11.5625 13.8782 11.6711 13.555 11.6711C13.2318 11.6711 12.9218 11.5625 12.6932 11.3692C12.4647 11.1759 12.3363 10.9137 12.3363 10.6403V7.20398Z" fill="#E74C3C"/>
</svg>
